<svg xmlns="http://www.w3.org/2000/svg" viewBox="0 0 165.77 127.65"><defs><style>.cls-1{fill:#ed1c24;}</style></defs><g id="Layer_2" data-name="Layer 2"><g id="Layer_1-2" data-name="Layer 1"><path class="cls-1" d="M12.45,67.11l-.7-.64C4.84,60.16,8.08,51.32,8.11,51.23l.37-1,.69.77a15.64,15.64,0,0,1,3.6,15.19ZM9,52.74A12.94,12.94,0,0,0,11.85,64.8,14.42,14.42,0,0,0,9,52.74Z"/><path class="cls-1" d="M19.52,87l-.8-.5c-7.95-4.94-6.38-14.22-6.37-14.32l.18-1,.82.62A15.62,15.62,0,0,1,19.67,86Zm-6-13.48a12.88,12.88,0,0,0,5,11.32A14.39,14.39,0,0,0,13.48,73.49Z"/><path class="cls-1" d="M33.5,102.84l-.93-.15C23.34,101.16,21.23,92,21.21,91.89l-.22-1,1,.26a15.62,15.62,0,0,1,11.29,10.77ZM22.76,92.69a12.9,12.9,0,0,0,9,8.54A14.45,14.45,0,0,0,22.76,92.69Z"/><path class="cls-1" d="M47.46,114.83c-7.66,0-11.81-6.57-11.85-6.64l-.54-.88,1-.08a15.64,15.64,0,0,1,14.23,6.43l.51.79-.93.17A14,14,0,0,1,47.46,114.83Zm-10.13-6.4a12.94,12.94,0,0,0,11.31,5.09A14.49,14.49,0,0,0,37.33,108.43Z"/><path class="cls-1" d="M65.18,123.43c-6.54,0-10.77-5-10.82-5l-.66-.79,1-.23a15.64,15.64,0,0,1,15,4.34l.62.72-.9.29A13.61,13.61,0,0,1,65.18,123.43Zm-9.07-5A12.91,12.91,0,0,0,68,121.82,14.42,14.42,0,0,0,56.11,118.4Z"/><path class="cls-1" d="M83.57,127.65a15.89,15.89,0,0,1-8.76-2.83L74,124.2l.93-.44a15.6,15.6,0,0,1,15.58.9l.77.56-.82.49A13.23,13.23,0,0,1,83.57,127.65Zm-7.06-3.21a12.93,12.93,0,0,0,12.37.69A14.41,14.41,0,0,0,76.51,124.44Z"/><path class="cls-1" d="M99.76,125.86a15,15,0,0,1-3.54-.39l-1-.28.7-.76a15.67,15.67,0,0,1,14.79-5l.92.24-.57.75A13.73,13.73,0,0,1,99.76,125.86Zm-2.1-1.39a12.92,12.92,0,0,0,11.73-4A14.4,14.4,0,0,0,97.66,124.47Z"/><path class="cls-1" d="M116.85,119.23h-.19l-1,0,.51-.89a15.68,15.68,0,0,1,13.33-8.12l.95,0-.39.86C126.47,118.89,118.23,119.23,116.85,119.23Zm11.56-7.76a14.44,14.44,0,0,0-10.58,6.47A12.93,12.93,0,0,0,128.41,111.47Z"/><path class="cls-1" d="M134.47,108.57l.09-1a15.63,15.63,0,0,1,8.64-13l.87-.38v1c.1,9.36-8.57,13-8.66,13.06Zm8.32-12.38A14.41,14.41,0,0,0,136,106.52,12.92,12.92,0,0,0,142.79,96.19Z"/><path class="cls-1" d="M147.61,91.8l-.1-1a15.67,15.67,0,0,1,6.18-14.34l.79-.52.18.93c1.77,9.19-6.1,14.35-6.18,14.4Zm6-13.67a14.41,14.41,0,0,0-4.88,11.39A12.93,12.93,0,0,0,153.58,78.13Z"/><path class="cls-1" d="M156.62,72.44l-.36-1A15.63,15.63,0,0,1,158.49,56l.62-.72.42.86c4.11,8.41-2.15,15.44-2.22,15.51Zm2.2-14.76A14.47,14.47,0,0,0,157.07,70,12.89,12.89,0,0,0,158.82,57.68Z"/><path class="cls-1" d="M155.79,48.87a14.82,14.82,0,0,1-6.4-1.38l-.85-.43.73-.61c7.18-6,15.51-1.63,15.59-1.58l.91.49-.85.58A15.9,15.9,0,0,1,155.79,48.87Zm-4.88-2.1a14.44,14.44,0,0,0,12.34-1.25A13,13,0,0,0,150.91,46.77Z"/><path class="cls-1" d="M134.57,48.87a14.82,14.82,0,0,1-6.4-1.38l-.85-.43.73-.61c7.18-6,15.51-1.63,15.59-1.58l.91.49-.85.58A15.9,15.9,0,0,1,134.57,48.87Zm-4.88-2.1A14.41,14.41,0,0,0,142,45.52,12.93,12.93,0,0,0,129.69,46.77Z"/><path class="cls-1" d="M113.35,48.87a14.82,14.82,0,0,1-6.4-1.38l-.85-.43.73-.61c7.18-6,15.51-1.63,15.59-1.58l.91.49-.85.58A15.9,15.9,0,0,1,113.35,48.87Zm-4.88-2.1a14.41,14.41,0,0,0,12.33-1.25A12.93,12.93,0,0,0,108.47,46.77Z"/><path class="cls-1" d="M92.13,48.87a14.82,14.82,0,0,1-6.4-1.38l-.85-.43.73-.61c7.18-6,15.51-1.63,15.59-1.58l.91.49-.85.58A15.9,15.9,0,0,1,92.13,48.87Zm-4.88-2.1a14.41,14.41,0,0,0,12.33-1.25A12.93,12.93,0,0,0,87.25,46.77Z"/><path class="cls-1" d="M70.91,48.87a14.82,14.82,0,0,1-6.4-1.38l-.85-.43.73-.61c7.17-6,15.51-1.63,15.59-1.58l.91.49-.85.58A15.9,15.9,0,0,1,70.91,48.87ZM66,46.77a14.41,14.41,0,0,0,12.33-1.25A12.93,12.93,0,0,0,66,46.77Z"/><path class="cls-1" d="M49.69,48.87a14.89,14.89,0,0,1-6.41-1.38l-.84-.43.73-.61c7.17-6,15.51-1.63,15.59-1.58l.91.49-.85.58A15.9,15.9,0,0,1,49.69,48.87Zm-4.88-2.1a14.41,14.41,0,0,0,12.33-1.25A12.93,12.93,0,0,0,44.81,46.77Z"/><path class="cls-1" d="M28.47,48.87a14.89,14.89,0,0,1-6.41-1.38l-.84-.43.73-.61c7.17-6,15.51-1.63,15.59-1.58l.9.49-.84.58A15.9,15.9,0,0,1,28.47,48.87Zm-4.88-2.1a14.41,14.41,0,0,0,12.33-1.25A12.93,12.93,0,0,0,23.59,46.77Z"/><path class="cls-1" d="M7.25,48.87A14.89,14.89,0,0,1,.84,47.49L0,47.06l.73-.61c7.17-6,15.5-1.63,15.59-1.58l.9.49-.84.58A15.9,15.9,0,0,1,7.25,48.87Zm-4.88-2.1A14.41,14.41,0,0,0,14.7,45.52,12.93,12.93,0,0,0,2.37,46.77Z"/><path class="cls-1" d="M27.79,81.68l-.72-.62C20,75,23,66,23,65.93l.34-1,.71.74a15.64,15.64,0,0,1,4,15.08Zm-3.9-14.26a12.91,12.91,0,0,0,3.23,12A14.46,14.46,0,0,0,23.89,67.42Z"/><path class="cls-1" d="M40.84,98.4l-.93-.21c-9.12-2.07-10.68-11.36-10.69-11.45l-.16-1L30,86A15.63,15.63,0,0,1,40.67,97.47ZM30.71,87.63a13,13,0,0,0,8.47,9.06A14.45,14.45,0,0,0,30.71,87.63Z"/><path class="cls-1" d="M54.77,110c-7.5,0-11.68-6.35-11.72-6.42l-.56-.87,1-.1a15.63,15.63,0,0,1,14.34,6.16l.53.78-.93.18A13.48,13.48,0,0,1,54.77,110Zm-10-6.21a12.91,12.91,0,0,0,11.4,4.87A14.39,14.39,0,0,0,44.78,103.82Z"/><path class="cls-1" d="M71.64,117.38a15.76,15.76,0,0,1-9.57-3.56l-.76-.68,1-.37a15.61,15.61,0,0,1,15.46,2.14l.72.61-.85.43A13.3,13.3,0,0,1,71.64,117.38Zm-7.84-3.81a12.92,12.92,0,0,0,12.28,1.68A14.41,14.41,0,0,0,63.8,113.57Z"/><path class="cls-1" d="M88.74,120.11a16.07,16.07,0,0,1-5.53-1l-.95-.4.79-.67A15.62,15.62,0,0,1,98.35,115l.88.35-.66.68A13.38,13.38,0,0,1,88.74,120.11Zm-4-1.77a12.93,12.93,0,0,0,12.15-2.47A14.43,14.43,0,0,0,84.76,118.34Z"/><path class="cls-1" d="M104.84,116h-.15l-1,0,.51-.89a15.59,15.59,0,0,1,13.29-8.19l.94,0-.38.86C114.46,115.66,106.08,116,104.84,116Zm11.56-7.82a14.44,14.44,0,0,0-10.54,6.52A12.91,12.91,0,0,0,116.4,108.15Z"/><path class="cls-1" d="M122.51,106l.28-1a15.65,15.65,0,0,1,10.94-11.14l.92-.2-.17.93c-1.66,9.21-10.87,11.18-11,11.2ZM133,95.38a14.45,14.45,0,0,0-8.67,8.86A12.92,12.92,0,0,0,133,95.38Z"/><path class="cls-1" d="M137.22,90.47l-.15-1a15.63,15.63,0,0,1,5.52-14.6l.77-.57.22.93c2.19,9.1-5.44,14.61-5.52,14.66Zm5.34-13.94a14.43,14.43,0,0,0-4.36,11.61A13,13,0,0,0,142.56,76.53Z"/><path class="cls-1" d="M145.64,70.66l-.51-.9a15.65,15.65,0,0,1-.06-15.61l.51-.79.54.78c5.3,7.71.14,15.59.09,15.67Zm0-14.92a14.44,14.44,0,0,0,.07,12.4A12.91,12.91,0,0,0,145.64,55.74Z"/><path class="cls-1" d="M127.61,60.74a15.06,15.06,0,0,1-6.41-1.38l-.84-.43.73-.61c7.17-6,15.5-1.63,15.59-1.59l.9.49-.84.59A15.9,15.9,0,0,1,127.61,60.74Zm-4.88-2.1a14.45,14.45,0,0,0,12.33-1.25A12.88,12.88,0,0,0,122.73,58.64Z"/><path class="cls-1" d="M106.39,60.74A15.06,15.06,0,0,1,100,59.36l-.84-.43.73-.61c7.17-6,15.5-1.63,15.59-1.59l.9.49-.85.59A15.87,15.87,0,0,1,106.39,60.74Zm-4.88-2.1a14.45,14.45,0,0,0,12.33-1.25A12.88,12.88,0,0,0,101.51,58.64Z"/><path class="cls-1" d="M85.17,60.74a15.06,15.06,0,0,1-6.41-1.38l-.84-.43.73-.61c7.17-6,15.5-1.63,15.59-1.59l.9.49-.85.59A15.87,15.87,0,0,1,85.17,60.74Zm-4.88-2.1a14.45,14.45,0,0,0,12.33-1.25A12.88,12.88,0,0,0,80.29,58.64Z"/><path class="cls-1" d="M64,60.74a15.06,15.06,0,0,1-6.41-1.38l-.84-.43.72-.61c7.18-6,15.51-1.63,15.6-1.59l.9.49-.85.59A15.87,15.87,0,0,1,64,60.74Zm-4.88-2.1A14.45,14.45,0,0,0,71.4,57.39,12.88,12.88,0,0,0,59.07,58.64Z"/><path class="cls-1" d="M42.73,60.74a15.06,15.06,0,0,1-6.41-1.38l-.84-.43.72-.61c7.18-6,15.51-1.63,15.6-1.59l.9.49-.85.59A15.87,15.87,0,0,1,42.73,60.74Zm-4.88-2.1a14.45,14.45,0,0,0,12.33-1.25A12.88,12.88,0,0,0,37.85,58.64Z"/><path class="cls-1" d="M21.5,60.74a15,15,0,0,1-6.4-1.38l-.84-.43.72-.61c7.18-6,15.51-1.63,15.59-1.59l.91.49-.85.59A15.88,15.88,0,0,1,21.5,60.74Zm-4.88-2.1A14.47,14.47,0,0,0,29,57.39,12.9,12.9,0,0,0,16.62,58.64Z"/><path class="cls-1" d="M45.21,83.63,44.47,83c-7.26-5.92-4.53-14.93-4.5-15l.31-1,.73.72a15.62,15.62,0,0,1,4.46,15ZM40.92,69.49a12.89,12.89,0,0,0,3.56,11.87A14.45,14.45,0,0,0,40.92,69.49Z"/><path class="cls-1" d="M58.28,99.53l-1-.07c-9.33-.74-12.2-9.71-12.23-9.8l-.3-1,1,.17A15.65,15.65,0,0,1,58,98.63Zm-11.57-9.2a12.94,12.94,0,0,0,9.68,7.75A14.44,14.44,0,0,0,46.71,90.33Z"/><path class="cls-1" d="M71.66,109a15.47,15.47,0,0,1-10.48-4.58l-.69-.76,1-.27a15.63,15.63,0,0,1,15.17,3.71l.65.69-.89.33A13.46,13.46,0,0,1,71.66,109Zm-8.74-4.65a12.94,12.94,0,0,0,12,2.92A14.42,14.42,0,0,0,62.92,104.34Z"/><path class="cls-1" d="M87.48,112.32a15.92,15.92,0,0,1-5.5-1L81,111l.79-.67a15.64,15.64,0,0,1,15.29-3.12l.89.35-.66.68A13.42,13.42,0,0,1,87.48,112.32Zm-4-1.77a12.93,12.93,0,0,0,12.14-2.49A14.4,14.4,0,0,0,83.53,110.55Z"/><path class="cls-1" d="M102.09,107l.47-.92a15.59,15.59,0,0,1,12.91-8.77l.94,0-.34.88c-3.44,8.7-12.86,8.83-12.95,8.83Zm12.38-8.33a14.41,14.41,0,0,0-10.24,7A12.91,12.91,0,0,0,114.47,98.69Z"/><path class="cls-1" d="M119.92,94.65l-.14-1a15.62,15.62,0,0,1,5.62-14.56l.77-.56.21.92c2.13,9.12-5.54,14.58-5.61,14.63Zm5.44-13.9a14.49,14.49,0,0,0-4.45,11.58A12.93,12.93,0,0,0,125.36,80.75Z"/><path class="cls-1" d="M124.67,70.7a14.89,14.89,0,0,1-6.41-1.38l-.84-.43.73-.61c7.17-6,15.5-1.63,15.59-1.58l.9.49-.85.58A15.87,15.87,0,0,1,124.67,70.7Zm-4.88-2.1a14.41,14.41,0,0,0,12.33-1.25A12.93,12.93,0,0,0,119.79,68.6Z"/><path class="cls-1" d="M103.45,70.7A14.89,14.89,0,0,1,97,69.32l-.84-.43.72-.61c7.18-6,15.51-1.63,15.6-1.58l.9.49-.85.58A15.87,15.87,0,0,1,103.45,70.7Zm-4.88-2.1a14.41,14.41,0,0,0,12.33-1.25A12.93,12.93,0,0,0,98.57,68.6Z"/><path class="cls-1" d="M82.23,70.7a14.89,14.89,0,0,1-6.41-1.38L75,68.89l.72-.61c7.18-6,15.51-1.63,15.6-1.58l.9.49-.85.58A15.87,15.87,0,0,1,82.23,70.7Zm-4.88-2.1a14.41,14.41,0,0,0,12.33-1.25A12.93,12.93,0,0,0,77.35,68.6Z"/><path class="cls-1" d="M61,70.7a14.89,14.89,0,0,1-6.41-1.38l-.84-.43.72-.61c7.18-6,15.51-1.63,15.59-1.58l.91.49-.85.58A15.87,15.87,0,0,1,61,70.7Zm-4.89-2.1a14.44,14.44,0,0,0,12.34-1.25A13,13,0,0,0,56.12,68.6Z"/><path class="cls-1" d="M39.78,70.7a14.87,14.87,0,0,1-6.4-1.38l-.84-.43.72-.61c7.18-6,15.51-1.63,15.59-1.58l.91.49-.85.58A15.88,15.88,0,0,1,39.78,70.7ZM34.9,68.6a14.44,14.44,0,0,0,12.34-1.25A13,13,0,0,0,34.9,68.6Z"/><path class="cls-1" d="M71,98.42l-.94-.09c-9.32-.91-12-9.93-12.05-10l-.29-1,1,.2a15.62,15.62,0,0,1,12,10ZM59.63,89a12.92,12.92,0,0,0,9.54,7.92A14.45,14.45,0,0,0,59.63,89Z"/><path class="cls-1" d="M84.42,104.31a16,16,0,0,1-8.85-2.89l-.81-.63.93-.44a15.62,15.62,0,0,1,15.57,1l.76.56-.81.48A13.16,13.16,0,0,1,84.42,104.31ZM77.27,101a12.92,12.92,0,0,0,12.37.8A14.4,14.4,0,0,0,77.27,101Z"/><path class="cls-1" d="M96.8,102.54l.39-1a15.65,15.65,0,0,1,12.14-9.81l.94-.1-.27.91c-2.71,9-12.08,9.86-12.17,9.87Zm11.65-9.32A14.4,14.4,0,0,0,98.82,101,13,13,0,0,0,108.45,93.22Z"/><path class="cls-1" d="M114.74,89.26l-.41-.94a15.62,15.62,0,0,1,1.36-15.55l.58-.75.46.83c4.58,8.17-1.28,15.54-1.34,15.61Zm1.37-14.86a14.47,14.47,0,0,0-1.06,12.35A12.9,12.9,0,0,0,116.11,74.4Z"/><path class="cls-1" d="M98.06,79.19a14.89,14.89,0,0,1-6.41-1.38l-.84-.43.73-.61c7.17-6,15.5-1.63,15.59-1.58l.9.49-.85.58A15.87,15.87,0,0,1,98.06,79.19Zm-4.88-2.1a14.41,14.41,0,0,0,12.33-1.25A12.93,12.93,0,0,0,93.18,77.09Z"/><path class="cls-1" d="M76.84,79.19a14.89,14.89,0,0,1-6.41-1.38l-.84-.43.73-.61c7.17-6,15.5-1.63,15.59-1.58l.9.49-.85.58A15.87,15.87,0,0,1,76.84,79.19ZM72,77.09a14.41,14.41,0,0,0,12.33-1.25A12.93,12.93,0,0,0,72,77.09Z"/><path class="cls-1" d="M55.62,79.19a14.89,14.89,0,0,1-6.41-1.38l-.84-.43.72-.61c7.18-6,15.51-1.63,15.6-1.58l.9.49-.85.58A15.87,15.87,0,0,1,55.62,79.19Zm-4.88-2.1a14.41,14.41,0,0,0,12.33-1.25A12.93,12.93,0,0,0,50.74,77.09Z"/><path class="cls-1" d="M84.48,95.23l-1-.3A15.61,15.61,0,0,1,72.67,83.69l-.19-.93.93.19c9.16,1.92,10.88,11.17,10.9,11.27ZM74.18,84.44a14.39,14.39,0,0,0,8.61,8.91A12.92,12.92,0,0,0,74.18,84.44Z"/><path class="cls-1" d="M89.72,95.91l.18-1a15.63,15.63,0,0,1,9.76-12.18l.9-.29-.07.94c-.73,9.33-9.7,12.21-9.79,12.24Zm9.39-11.6A14.4,14.4,0,0,0,91.37,94,12.93,12.93,0,0,0,99.11,84.31Z"/><path class="cls-1" d="M87.71,95.92,87.22,95a15.65,15.65,0,0,1,.15-15.61l.52-.79.53.79c5.19,7.79-.07,15.59-.13,15.67ZM87.92,81a14.46,14.46,0,0,0-.1,12.39A12.9,12.9,0,0,0,87.92,81Z"/><path class="cls-1" d="M27.34,25.69A15.46,15.46,0,0,1,16.76,21l-.68-.77,1-.26a15.66,15.66,0,0,1,15.12,3.9l.64.69-.89.32A13.49,13.49,0,0,1,27.34,25.69Zm-8.83-4.76a12.91,12.91,0,0,0,12,3.07A14.4,14.4,0,0,0,18.51,20.93Z"/><path class="cls-1" d="M47.26,33a15.47,15.47,0,0,1-10.57-4.71L36,27.52l1-.26a15.63,15.63,0,0,1,15.12,3.89l.64.7-.89.32A13.44,13.44,0,0,1,47.26,33Zm-8.83-4.77a12.91,12.91,0,0,0,12,3.07A14.48,14.48,0,0,0,38.43,28.23Z"/><path class="cls-1" d="M52.66,18.18l-.87-.37c-8.65-3.59-8.6-13-8.6-13.1l0-1,.91.48a15.63,15.63,0,0,1,8.54,13.07ZM44.51,5.84a13,13,0,0,0,6.8,10.37A14.4,14.4,0,0,0,44.51,5.84Z"/><path class="cls-1" d="M62.45,37l-.87-.36c-8.64-3.6-8.6-13-8.6-13.1l0-1,.91.48a15.63,15.63,0,0,1,8.54,13.06ZM54.3,24.67A12.94,12.94,0,0,0,61.1,35,14.38,14.38,0,0,0,54.3,24.67Z"/><path class="cls-1" d="M75.67,17.22l-.61-.72C69.06,9.32,73.44,1,73.48.91L74,0l.59.85a15.65,15.65,0,0,1,1.55,15.53ZM74.13,2.52a12.93,12.93,0,0,0,1.26,12.34A14.45,14.45,0,0,0,74.13,2.52Z"/><path class="cls-1" d="M75.67,38.44l-.61-.72c-6-7.18-1.62-15.51-1.58-15.59l.49-.91.59.85A15.65,15.65,0,0,1,76.11,37.6Zm-1.54-14.7a12.93,12.93,0,0,0,1.26,12.34A14.45,14.45,0,0,0,74.13,23.74Z"/><path class="cls-1" d="M90.34,17.53l-.49-.81c-4.85-8,.75-15.58.8-15.65l.63-.83.44.93a15.6,15.6,0,0,1-.83,15.59Zm.71-14.77a12.93,12.93,0,0,0-.64,12.38A14.41,14.41,0,0,0,91.05,2.76Z"/><path class="cls-1" d="M87.11,38.5l-.49-.81c-4.85-8,.75-15.58.81-15.65l.62-.82.44.93a15.58,15.58,0,0,1-.83,15.58Zm.71-14.76a12.93,12.93,0,0,0-.64,12.38A14.41,14.41,0,0,0,87.82,23.74Z"/><path class="cls-1" d="M103.55,18.32l-.32-.89C100,8.64,107,2.29,107,2.22l.77-.68.26,1a15.66,15.66,0,0,1-3.8,15.14ZM107.08,4a13,13,0,0,0-3,12A14.38,14.38,0,0,0,107.08,4Z"/><path class="cls-1" d="M96.37,38.28,96,37.39c-3.23-8.78,3.72-15.14,3.79-15.2l.77-.69.26,1a15.66,15.66,0,0,1-3.8,15.14ZM99.9,23.93a12.9,12.9,0,0,0-3,12A14.45,14.45,0,0,0,99.9,23.93Z"/><path class="cls-1" d="M121.8,21.46l.06-.95c.64-9.34,9.57-12.31,9.66-12.34l1-.31-.16,1a15.63,15.63,0,0,1-9.64,12.28Zm9.07-11.67a12.93,12.93,0,0,0-7.64,9.76A14.43,14.43,0,0,0,130.87,9.79Z"/><path class="cls-1" d="M107.1,36.76l.06-.95c.64-9.33,9.57-12.31,9.66-12.34l1-.31-.16,1A15.63,15.63,0,0,1,108,36.45Zm9.07-11.67a12.93,12.93,0,0,0-7.64,9.76A14.4,14.4,0,0,0,116.17,25.09Z"/><path class="cls-1" d="M142.56,24.9l.36-.87c3.57-8.66,13-8.63,13.08-8.64h1l-.48.91a15.61,15.61,0,0,1-13,8.58Zm12.31-8.18a12.93,12.93,0,0,0-10.35,6.83A14.45,14.45,0,0,0,154.87,16.72Z"/><path class="cls-1" d="M123.76,34.75l.36-.88c3.57-8.65,13-8.62,13.08-8.63h1l-.48.91a15.64,15.64,0,0,1-13,8.58Zm12.31-8.19a12.94,12.94,0,0,0-10.35,6.83A14.45,14.45,0,0,0,136.07,26.56Z"/></g></g></svg>