<svg xmlns="http://www.w3.org/2000/svg" viewBox="0 0 145.64 154.15"><defs><style>.cls-1{fill:#ed1c24;}</style></defs><g id="Layer_2" data-name="Layer 2"><g id="Layer_1-2" data-name="Layer 1"><path class="cls-1" d="M101,136.61l-.59-.78a14.89,14.89,0,0,1-2.14-14.68l.38-.82.61.66c6,6.56,2.2,14.66,2.16,14.74Zm-2-14a13.72,13.72,0,0,0,1.72,11.65A12.28,12.28,0,0,0,99,122.57Z"/><path class="cls-1" d="M100.11,116.46l-.59-.78A14.87,14.87,0,0,1,97.39,101l.38-.82.61.67c6,6.55,2.2,14.65,2.16,14.73Zm-2-14a13.7,13.7,0,0,0,1.71,11.65A12.25,12.25,0,0,0,98.14,102.42Z"/><path class="cls-1" d="M98.1,96.35l-.67-.71a14.84,14.84,0,0,1-3.67-14.37l.29-.86.67.6c6.67,5.89,3.74,14.34,3.71,14.42ZM94.66,82.6A13.71,13.71,0,0,0,97.59,94,12.3,12.3,0,0,0,94.66,82.6Z"/><path class="cls-1" d="M94.45,76.24l-.84-.5A14.87,14.87,0,0,1,86,63l0-.9.82.38c8.06,3.78,7.62,12.71,7.62,12.8ZM87.27,64a13.71,13.71,0,0,0,6,10.12A12.28,12.28,0,0,0,87.27,64Z"/><path class="cls-1" d="M85.8,57.9l-.92-.34a14.85,14.85,0,0,1-9.75-11.18L75,45.49l.87.23c8.61,2.25,9.8,11.12,9.81,11.21ZM76.53,47.17A13.66,13.66,0,0,0,84.28,56,12.27,12.27,0,0,0,76.53,47.17Z"/><path class="cls-1" d="M71,42.12a14.79,14.79,0,0,1-12.42-6.46l-.47-.77.89-.14c8.8-1.32,13.38,6.37,13.43,6.45l.49.84-1,.06ZM60.17,35.83a13.7,13.7,0,0,0,10.62,5.09A12.28,12.28,0,0,0,60.17,35.83Z"/><path class="cls-1" d="M47.35,34.58a14.56,14.56,0,0,1-8.18-2.48l-.73-.54.78-.46C46.88,26.58,54,32,54.08,32l.78.6-.89.42A15.4,15.4,0,0,1,47.35,34.58Zm-6.64-2.92a13.71,13.71,0,0,0,11.76.73A12.3,12.3,0,0,0,40.71,31.66Z"/><path class="cls-1" d="M23.49,35.07a13.11,13.11,0,0,1-4-.56l-.85-.28.59-.68c5.89-6.66,14.34-3.73,14.43-3.7l.92.33-.71.67A15,15,0,0,1,23.49,35.07Zm-2.63-1.45a13.7,13.7,0,0,0,11.41-2.93A12.3,12.3,0,0,0,20.86,33.62Z"/><path class="cls-1" d="M1.51,41.35a5.42,5.42,0,0,1-.61,0L0,41.25l.42-.79c4.14-7.88,13.05-7,13.14-7l1,.1-.54.82A14.93,14.93,0,0,1,1.51,41.35ZM12.37,34.6A12.27,12.27,0,0,0,2,40.15,13.75,13.75,0,0,0,12.37,34.6Z"/><path class="cls-1" d="M134.28,40.59l.14-.89c1.46-8.77,10.18-10.77,10.26-10.79l1-.21-.25.95a14.83,14.83,0,0,1-10.24,10.73Zm9.64-10.21a12.29,12.29,0,0,0-8.12,8.54A13.71,13.71,0,0,0,143.92,30.38Z"/><path class="cls-1" d="M122.13,56.31l-.07-.89c-.65-8.88,7.36-12.87,7.44-12.91l.88-.43,0,1a14.84,14.84,0,0,1-7.43,12.84Zm7-12.19a12.27,12.27,0,0,0-5.88,10.21A13.7,13.7,0,0,0,129.1,44.12Z"/><path class="cls-1" d="M113.93,74.56l-.23-.87c-2.33-8.59,4.77-14,4.84-14.08l.79-.59.16,1a14.85,14.85,0,0,1-4.85,14Zm4.53-13.3a12.29,12.29,0,0,0-3.83,11.14A13.72,13.72,0,0,0,118.46,61.26Z"/><path class="cls-1" d="M109.57,94.13l-.41-.81c-4-7.94,1.84-14.7,1.9-14.77l.65-.73.36.91a14.87,14.87,0,0,1-1.92,14.71Zm1.74-13.94a12.3,12.3,0,0,0-1.5,11.68A13.69,13.69,0,0,0,111.31,80.19Z"/><path class="cls-1" d="M107.75,114.1l-.52-.74c-5.1-7.28-.26-14.81-.21-14.89l.53-.82.49.86a14.86,14.86,0,0,1,.19,14.83Zm-.25-14a12.29,12.29,0,0,0,.17,11.78A13.7,13.7,0,0,0,107.5,100.06Z"/><path class="cls-1" d="M107.33,134.2l-.57-.7c-5.58-6.93-1.26-14.77-1.22-14.85l.49-.85.53.82a14.89,14.89,0,0,1,1.2,14.79Zm-1.2-14a12.3,12.3,0,0,0,1,11.74A13.73,13.73,0,0,0,106.13,120.2Z"/><path class="cls-1" d="M109.48,154.15l-.65-.62c-6.43-6.15-3.16-14.48-3.13-14.56l.37-.91.64.74a14.86,14.86,0,0,1,3.09,14.51Zm-3-13.72A12.29,12.29,0,0,0,109,152,13.71,13.71,0,0,0,106.49,140.43Z"/><path class="cls-1" d="M132.92,75.55l.1-.89c1-8.84,9.6-11.29,9.69-11.31l.95-.26-.21,1a14.87,14.87,0,0,1-9.67,11.25ZM142,64.86a12.28,12.28,0,0,0-7.66,8.94A13.67,13.67,0,0,0,142,64.86Z"/><path class="cls-1" d="M122.85,92.85l-.17-.88c-1.64-8.74,5.86-13.62,5.94-13.66l.82-.53.09,1a14.87,14.87,0,0,1-5.93,13.6ZM128.41,80a12.28,12.28,0,0,0-4.7,10.81A13.73,13.73,0,0,0,128.41,80Z"/><path class="cls-1" d="M114.37,111l-.26-.86c-2.57-8.52,4.38-14.16,4.45-14.22l.76-.61.2,1a14.89,14.89,0,0,1-4.45,14.16Zm4.15-13.42A12.26,12.26,0,0,0,115,108.83,13.69,13.69,0,0,0,118.52,97.59Z"/><path class="cls-1" d="M108,130.07l-.33-.84c-3.29-8.26,3.15-14.48,3.21-14.54l.71-.67.28.94a14.85,14.85,0,0,1-3.23,14.48Zm3-13.73a12.3,12.3,0,0,0-2.54,11.51A13.74,13.74,0,0,0,111,116.34Z"/><path class="cls-1" d="M104.93,149.88l-.47-.77c-4.61-7.61.7-14.81.75-14.88l.59-.78.43.88a14.87,14.87,0,0,1-.77,14.82Zm.66-14a12.3,12.3,0,0,0-.59,11.77A13.7,13.7,0,0,0,105.59,135.84Z"/><path class="cls-1" d="M42.93,75.6a15.17,15.17,0,0,1-8.14-2.53L34,72.49l.88-.44a14.86,14.86,0,0,1,14.82.58l.74.52-.76.47A12.52,12.52,0,0,1,42.93,75.6ZM36.4,72.67a12.29,12.29,0,0,0,11.77.44A13.67,13.67,0,0,0,36.4,72.67Z"/><path class="cls-1" d="M64.78,82.68c-6.71,0-10.73-5.44-10.77-5.5l-.58-.79,1-.15a14.85,14.85,0,0,1,13.94,5.09l.54.72-.88.22A12.92,12.92,0,0,1,64.78,82.68Zm-9.12-5.39a12.28,12.28,0,0,0,11.07,4A13.73,13.73,0,0,0,55.66,77.29Z"/><path class="cls-1" d="M82.9,97.46l-.9-.1c-8.84-1-11.3-9.58-11.33-9.67l-.26-.94,1,.2a14.86,14.86,0,0,1,11.27,9.64ZM72.18,88.37a12.29,12.29,0,0,0,9,7.65A13.69,13.69,0,0,0,72.18,88.37Z"/><path class="cls-1" d="M95.36,113.44l-.88-.19c-8.7-1.85-10.3-10.65-10.31-10.74l-.17-1,.93.3a14.84,14.84,0,0,1,10.26,10.72Zm-9.76-10.1a12.3,12.3,0,0,0,8.16,8.5A13.72,13.72,0,0,0,85.6,103.34Z"/><path class="cls-1" d="M105.09,131.35l-.84-.33c-8.29-3.23-8.45-12.17-8.45-12.26v-1l.87.44a14.86,14.86,0,0,1,8.4,12.23Zm-8-11.54a12.3,12.3,0,0,0,6.69,9.7A13.73,13.73,0,0,0,97.08,119.81Z"/><path class="cls-1" d="M69.92,7.3C62.62,7.3,58.68,1,58.64,1L58.13.13l1-.08A14.88,14.88,0,0,1,72.61,6.19L73.1,7l-.89.15A13.22,13.22,0,0,1,69.92,7.3ZM60.28,1.2A12.3,12.3,0,0,0,71,6.06,13.68,13.68,0,0,0,60.42,1.2Z"/><path class="cls-1" d="M85.34,23.57l-.85-.28c-8.44-2.83-9-11.76-9-11.85l-.06-1,.9.39a14.86,14.86,0,0,1,9,11.82ZM76.79,12.43a12.26,12.26,0,0,0,7.14,9.37A13.72,13.72,0,0,0,76.79,12.43Z"/><path class="cls-1" d="M93.58,42.12l-.8-.41c-7.94-4-7.23-12.94-7.22-13l.09-1,.82.52a14.87,14.87,0,0,1,7.18,13ZM86.73,29.85a12.32,12.32,0,0,0,5.71,10.31A13.66,13.66,0,0,0,86.73,29.85Z"/><path class="cls-1" d="M97.93,62.06l-.72-.55c-7.09-5.36-4.8-14-4.78-14.1l.26-.94.72.66a14.83,14.83,0,0,1,4.74,14.06ZM93.38,48.77a12.29,12.29,0,0,0,3.78,11.16A13.71,13.71,0,0,0,93.38,48.77Z"/><path class="cls-1" d="M100.06,82.26l-.64-.64C93.11,75.36,96.53,67.09,96.56,67l.39-.9.62.75a14.86,14.86,0,0,1,2.83,14.56ZM97.32,68.48A12.28,12.28,0,0,0,99.58,80,13.67,13.67,0,0,0,97.32,68.48Z"/></g></g></svg>