<svg xmlns="http://www.w3.org/2000/svg" viewBox="0 0 135.06 146.3"><defs><style>.cls-1{fill:#ed1c24;}</style></defs><g id="Layer_2" data-name="Layer 2"><g id="Layer_1-2" data-name="Layer 1"><path class="cls-1" d="M78.4,110.5l-.57-.62a12.78,12.78,0,0,1-3.06-12.35L75,96.8l.57.52c5.68,5.09,3.12,12.32,3.09,12.39ZM75.53,98.68a11.77,11.77,0,0,0,2.45,9.8A10.54,10.54,0,0,0,75.53,98.68Z"/><path class="cls-1" d="M75.14,93.39l-.71-.46a12.7,12.7,0,0,1-6-11.21l.06-.77.68.36c6.77,3.53,6.06,11.17,6,11.24Zm-5.7-10.75a11.79,11.79,0,0,0,4.79,8.9A10.51,10.51,0,0,0,69.44,82.64Z"/><path class="cls-1" d="M68.37,77.45,67.64,77a12.75,12.75,0,0,1-6.59-10.88l0-.78.7.33c6.94,3.17,6.63,10.83,6.63,10.91ZM62.12,67a11.77,11.77,0,0,0,5.24,8.63A10.51,10.51,0,0,0,62.12,67Z"/><path class="cls-1" d="M60.73,61.9,60,61.52a12.75,12.75,0,0,1-7.23-10.47l0-.77.72.28c7.11,2.75,7.27,10.42,7.27,10.5Zm-6.86-10a11.72,11.72,0,0,0,5.75,8.3A10.53,10.53,0,0,0,53.87,51.86Z"/><path class="cls-1" d="M52.33,46.77l-.76-.36a12.77,12.77,0,0,1-7.42-10.33l0-.78.72.27C52,38.19,52.3,45.85,52.31,45.93Zm-7-9.91a11.76,11.76,0,0,0,5.91,8.19A10.53,10.53,0,0,0,45.28,36.86Z"/><path class="cls-1" d="M38.31,29.1A12.32,12.32,0,0,1,33.09,28l-.69-.36.59-.49c5.85-4.9,12.64-1.33,12.71-1.29l.74.4-.69.47A13,13,0,0,1,38.31,29.1Zm-4-1.71a11.78,11.78,0,0,0,10.05-1A10.52,10.52,0,0,0,34.33,27.39Z"/><path class="cls-1" d="M27.71,48.08l-.13-.76c-1.32-7.51,5.17-11.61,5.23-11.65l.72-.44.06.84a12.74,12.74,0,0,1-5.23,11.6Zm4.9-11a10.56,10.56,0,0,0-4.14,9.22A11.76,11.76,0,0,0,32.61,37.08Z"/><path class="cls-1" d="M19.34,63.2l-.15-.76c-1.46-7.49,4.95-11.71,5-11.75l.71-.45.08.83a12.75,12.75,0,0,1-5,11.7ZM24,52.1a10.53,10.53,0,0,0-4,9.29A11.75,11.75,0,0,0,24,52.1Z"/><path class="cls-1" d="M11.78,78.69,11.59,78c-1.91-7.39,4.23-12,4.3-12l.67-.49.14.82a12.76,12.76,0,0,1-4.31,12Zm4-11.35a10.51,10.51,0,0,0-3.4,9.51A11.76,11.76,0,0,0,15.8,67.34Z"/><path class="cls-1" d="M5.07,94.58l-.23-.74C2.55,86.57,8.45,81.66,8.51,81.61l.65-.53.17.82A12.73,12.73,0,0,1,5.66,94.08ZM8.49,83a10.57,10.57,0,0,0-2.9,9.68A11.76,11.76,0,0,0,8.49,83Z"/><path class="cls-1" d="M2.07,111.4l-.41-.65c-4-6.49.5-12.7.54-12.76l.5-.68.37.76a12.78,12.78,0,0,1-.55,12.71Zm.47-12a10.52,10.52,0,0,0-.43,10.09A11.72,11.72,0,0,0,2.54,99.37Z"/><path class="cls-1" d="M8.4,127.31,7.71,127c-6.78-3.49-6.13-11.13-6.13-11.21l.08-.83.71.45a12.75,12.75,0,0,1,6.09,11.17ZM2.59,116.76a10.51,10.51,0,0,0,4.84,8.86A11.75,11.75,0,0,0,2.59,116.76Z"/><path class="cls-1" d="M19.49,138.82c-7.28,0-10.34-6.69-10.37-6.76l-.34-.76.84,0a12.74,12.74,0,0,1,10.79,6.74l.33.7-.78,0Zm-9-6.37a10.54,10.54,0,0,0,8.58,5.34A11.76,11.76,0,0,0,10.49,132.45Z"/><path class="cls-1" d="M31.36,145.9a12.77,12.77,0,0,1-8-3.13l-.61-.58.79-.28A12.76,12.76,0,0,1,36.07,144l.57.53-.71.32A10.85,10.85,0,0,1,31.36,145.9Zm-6.61-3.3a10.51,10.51,0,0,0,10,1.66A11.77,11.77,0,0,0,24.75,142.6Z"/><path class="cls-1" d="M44.77,146.3a12.9,12.9,0,0,1-4.08-.64l-.79-.3.62-.56a12.71,12.71,0,0,1,12.38-2.94l.73.26-.52.57A11,11,0,0,1,44.77,146.3ZM41.92,145a10.52,10.52,0,0,0,9.83-2.34A11.75,11.75,0,0,0,41.92,145Z"/><path class="cls-1" d="M57.1,141.59l.25-.8a12.74,12.74,0,0,1,9.25-8.74l.76-.14-.17.75c-1.63,7.46-9.19,8.78-9.26,8.79ZM66,133.28a11.74,11.74,0,0,0-7.32,6.95A10.51,10.51,0,0,0,66,133.28Z"/><path class="cls-1" d="M71,130.42l-.17-.82a12.72,12.72,0,0,1,3.76-12.15l.59-.5.23.74c2.24,7.29-3.69,12.16-3.75,12.21Zm3.65-11.6a11.76,11.76,0,0,0-3,9.66A10.55,10.55,0,0,0,74.64,118.82Z"/><path class="cls-1" d="M77,114.14l-.38-.75A12.76,12.76,0,0,1,77,100.67l.44-.63.41.65c4.08,6.45-.37,12.7-.41,12.77ZM77.43,102a11.76,11.76,0,0,0-.32,10.1A10.55,10.55,0,0,0,77.43,102Z"/><path class="cls-1" d="M63.25,96l-.66-.51a12.76,12.76,0,0,1-5.17-11.63l.12-.76.66.41c6.48,4,5.21,11.58,5.2,11.66ZM58.37,84.85a11.75,11.75,0,0,0,4.11,9.22A10.5,10.5,0,0,0,58.37,84.85Z"/><path class="cls-1" d="M57.11,79.76l-.72-.42a12.73,12.73,0,0,1-6.57-10.89l0-.78.7.33c6.93,3.18,6.61,10.85,6.61,10.92ZM50.89,69.32A11.72,11.72,0,0,0,56.11,78,10.53,10.53,0,0,0,50.89,69.32Z"/><path class="cls-1" d="M49.59,64.16l-.75-.38a12.77,12.77,0,0,1-7.11-10.55v-.77l.71.28c7.09,2.83,7.16,10.5,7.16,10.58ZM42.84,54a11.73,11.73,0,0,0,5.66,8.37A10.57,10.57,0,0,0,42.84,54Z"/><path class="cls-1" d="M34.69,57.54l-.15-.76c-1.42-7.49,5-11.68,5.07-11.72l.71-.45.07.83a12.73,12.73,0,0,1-5.06,11.67Zm4.74-11.07a10.53,10.53,0,0,0-4,9.27A11.78,11.78,0,0,0,39.43,46.47Z"/><path class="cls-1" d="M26.79,72.89l-.17-.75c-1.7-7.44,4.57-11.86,4.64-11.9l.69-.48.11.83a12.77,12.77,0,0,1-4.64,11.85Zm4.34-11.24a10.55,10.55,0,0,0-3.67,9.41A11.76,11.76,0,0,0,31.13,61.65Z"/><path class="cls-1" d="M19.88,88.67l-.23-.74c-2.26-7.29,3.66-12.17,3.72-12.21l.66-.53.17.82a12.74,12.74,0,0,1-3.73,12.16Zm3.47-11.53a10.5,10.5,0,0,0-2.94,9.66A11.77,11.77,0,0,0,23.35,77.14Z"/><path class="cls-1" d="M15.1,105.13l-.34-.7c-3.38-6.83,1.69-12.59,1.74-12.65l.56-.62.3.78a12.76,12.76,0,0,1-1.75,12.6Zm1.6-11.94a10.52,10.52,0,0,0-1.37,10A11.79,11.79,0,0,0,16.7,93.19Z"/><path class="cls-1" d="M21.15,121l-.71-.32c-6.93-3.17-6.63-10.84-6.62-10.91l0-.84.73.42a12.73,12.73,0,0,1,6.58,10.88Zm-6.29-10.27a10.55,10.55,0,0,0,5.24,8.63A11.73,11.73,0,0,0,14.86,110.68Z"/><path class="cls-1" d="M32.15,130.7c-6.16,0-9.56-5.24-9.59-5.3l-.45-.71.83-.07a12.74,12.74,0,0,1,11.66,5.09l.42.65-.76.14A11.22,11.22,0,0,1,32.15,130.7ZM24,125.58a10.52,10.52,0,0,0,9.27,4A11.79,11.79,0,0,0,24,125.58Z"/><path class="cls-1" d="M42.66,132.42a12.6,12.6,0,0,1-3.58-.49l-.8-.26.6-.59a12.75,12.75,0,0,1,12.25-3.43l.74.23-.5.59A11.06,11.06,0,0,1,42.66,132.42Zm-2.38-1.24A10.52,10.52,0,0,0,50,128.44,11.8,11.8,0,0,0,40.28,131.18Z"/><path class="cls-1" d="M54.68,125.94l.12-.83a12.76,12.76,0,0,1,7.65-10.17l.72-.26,0,.77c-.35,7.62-7.58,10.19-7.65,10.22ZM62,116.26A11.69,11.69,0,0,0,56,124.34,10.56,10.56,0,0,0,62,116.26Z"/><path class="cls-1" d="M63.73,111.19l-.37-.76A12.72,12.72,0,0,1,64,97.73l.45-.63.4.66c4,6.5-.54,12.69-.59,12.76ZM64.37,99a11.75,11.75,0,0,0-.47,10.09A10.54,10.54,0,0,0,64.37,99Z"/><path class="cls-1" d="M50.76,90.44,50,90a12.74,12.74,0,0,1-6.49-10.94l0-.77.7.32c6.91,3.24,6.54,10.9,6.53,11ZM44.61,80a11.73,11.73,0,0,0,5.17,8.68A10.54,10.54,0,0,0,44.61,80Z"/><path class="cls-1" d="M38.23,72.26A12.27,12.27,0,0,1,33,71.14l-.69-.35.59-.5C38.76,65.39,45.55,69,45.62,69l.73.4-.69.47A12.87,12.87,0,0,1,38.23,72.26Zm-4-1.71a11.74,11.74,0,0,0,10-1A10.55,10.55,0,0,0,34.25,70.55Z"/><path class="cls-1" d="M29.23,92l-.2-.75c-2-7.37,4.14-12,4.2-12.06l.67-.5.14.83a12.73,12.73,0,0,1-4.2,12Zm3.92-11.39a10.54,10.54,0,0,0-3.32,9.54A11.75,11.75,0,0,0,33.15,80.64Z"/><path class="cls-1" d="M30.51,108.61l-.59-.49C24,103.27,26.3,95.94,26.33,95.87l.25-.8.6.59a12.71,12.71,0,0,1,3.55,12.21ZM27.09,97.07a10.52,10.52,0,0,0,2.84,9.69A11.78,11.78,0,0,0,27.09,97.07Z"/><path class="cls-1" d="M38.92,112.55a12.15,12.15,0,0,1-3-.35l-.8-.23.57-.61a12.74,12.74,0,0,1,12.09-4l.75.2-.47.61A11.15,11.15,0,0,1,38.92,112.55Zm-1.84-1.15a10.52,10.52,0,0,0,9.59-3.14A11.74,11.74,0,0,0,37.08,111.4Z"/><path class="cls-1" d="M50.89,104.37l-.34-.76a12.73,12.73,0,0,1,1.07-12.68l.47-.61.38.67c3.75,6.65-1,12.67-1.06,12.73ZM52,92.26a11.77,11.77,0,0,0-.84,10.07A10.52,10.52,0,0,0,52,92.26Z"/><path class="cls-1" d="M134.3,79.46l-.36-.4a8.12,8.12,0,0,1-2-7.88l.16-.47.37.33c3.63,3.25,2,7.87,2,7.91Zm-1.83-7.55A7.48,7.48,0,0,0,134,78.17,6.72,6.72,0,0,0,132.47,71.91Z"/><path class="cls-1" d="M132.22,68.53l-.45-.29a8.14,8.14,0,0,1-3.84-7.17l0-.49.44.23c4.32,2.25,3.87,7.14,3.86,7.18Zm-3.64-6.87a7.51,7.51,0,0,0,3.06,5.69A6.76,6.76,0,0,0,128.58,61.66Z"/><path class="cls-1" d="M127.89,58.34l-.47-.26a8.13,8.13,0,0,1-4.2-7v-.49l.45.21c4.43,2,4.24,6.92,4.24,7Zm-4-6.66a7.48,7.48,0,0,0,3.35,5.51A6.75,6.75,0,0,0,123.9,51.68Z"/><path class="cls-1" d="M123,48.41l-.48-.24a8.18,8.18,0,0,1-4.62-6.69V41l.46.17c4.55,1.76,4.64,6.66,4.64,6.71ZM118.63,42a7.47,7.47,0,0,0,3.67,5.31A6.74,6.74,0,0,0,118.63,42Z"/><path class="cls-1" d="M117.64,38.74l-.48-.23a8.15,8.15,0,0,1-4.74-6.6l0-.49.46.17c4.58,1.67,4.77,6.57,4.77,6.62Zm-4.5-6.33a7.54,7.54,0,0,0,3.78,5.24A6.73,6.73,0,0,0,113.14,32.41Z"/><path class="cls-1" d="M108.69,27.45a7.83,7.83,0,0,1-3.34-.71l-.44-.23.38-.32c3.74-3.13,8.07-.84,8.12-.82l.47.26-.44.3A8.24,8.24,0,0,1,108.69,27.45Zm-2.54-1.09a7.53,7.53,0,0,0,6.42-.65A6.75,6.75,0,0,0,106.15,26.36Z"/><path class="cls-1" d="M101.92,39.58l-.09-.48c-.84-4.8,3.3-7.42,3.34-7.44l.46-.29,0,.54a8.14,8.14,0,0,1-3.34,7.41Zm3.13-7a6.75,6.75,0,0,0-2.65,5.89A7.49,7.49,0,0,0,105.05,32.55Z"/><path class="cls-1" d="M96.57,49.24l-.1-.49c-.93-4.78,3.16-7.47,3.21-7.5l.45-.29.05.53A8.15,8.15,0,0,1,97,49Zm3-7.09A6.72,6.72,0,0,0,97,48.09,7.57,7.57,0,0,0,99.57,42.15Z"/><path class="cls-1" d="M91.74,59.14l-.13-.48C90.4,53.94,94.32,51,94.36,51l.43-.32.09.53a8.15,8.15,0,0,1-2.75,7.65Zm2.56-7.25A6.72,6.72,0,0,0,92.13,58,7.45,7.45,0,0,0,94.3,51.89Z"/><path class="cls-1" d="M87.45,69.29l-.15-.47C85.84,64.17,89.61,61,89.65,61l.41-.33.11.52A8.13,8.13,0,0,1,87.83,69Zm2.19-7.38a6.74,6.74,0,0,0-1.86,6.18A7.48,7.48,0,0,0,89.64,61.91Z"/><path class="cls-1" d="M85.53,80l-.26-.42c-2.56-4.15.32-8.11.35-8.15l.32-.43.24.48a8.18,8.18,0,0,1-.36,8.12Zm.3-7.69a6.73,6.73,0,0,0-.27,6.45A7.5,7.5,0,0,0,85.83,72.35Z"/><path class="cls-1" d="M89.58,90.2,89.14,90c-4.34-2.22-3.92-7.11-3.92-7.16l.06-.53.45.29a8.18,8.18,0,0,1,3.89,7.14Zm-3.72-6.74A6.73,6.73,0,0,0,89,89.12,7.52,7.52,0,0,0,85.86,83.46Z"/><path class="cls-1" d="M96.66,97.55c-4.65,0-6.6-4.27-6.62-4.31l-.22-.49.54,0a8.14,8.14,0,0,1,6.89,4.3l.21.45-.49,0Zm-5.75-4.07a6.74,6.74,0,0,0,5.48,3.41A7.53,7.53,0,0,0,90.91,93.48Z"/><path class="cls-1" d="M104.25,102.07a8.15,8.15,0,0,1-5.13-2l-.39-.37.51-.17a8.1,8.1,0,0,1,8,1.35l.37.33-.45.21A7,7,0,0,1,104.25,102.07ZM100,100a6.76,6.76,0,0,0,6.37,1.06A7.54,7.54,0,0,0,100,100Z"/><path class="cls-1" d="M112.82,102.33a8.11,8.11,0,0,1-2.61-.41l-.51-.19.4-.36A8.15,8.15,0,0,1,118,99.49l.46.17-.33.36A7,7,0,0,1,112.82,102.33Zm-1.82-.86a6.72,6.72,0,0,0,6.27-1.5A7.49,7.49,0,0,0,111,101.47Z"/><path class="cls-1" d="M120.69,99.32l.16-.51a8.14,8.14,0,0,1,5.91-5.58l.49-.09-.11.48c-1,4.76-5.87,5.61-5.92,5.61ZM126.36,94a7.53,7.53,0,0,0-4.68,4.44A6.74,6.74,0,0,0,126.36,94Z"/><path class="cls-1" d="M129.57,92.19l-.11-.53a8.14,8.14,0,0,1,2.4-7.76l.38-.32.14.47c1.43,4.66-2.36,7.77-2.4,7.8Zm2.33-7.41A7.5,7.5,0,0,0,130,91,6.73,6.73,0,0,0,131.9,84.78Z"/><path class="cls-1" d="M133.38,81.78l-.24-.48a8.12,8.12,0,0,1,.28-8.12l.28-.4.26.41c2.61,4.12-.23,8.12-.26,8.16Zm.3-7.76a7.56,7.56,0,0,0-.21,6.45A6.72,6.72,0,0,0,133.68,74Z"/><path class="cls-1" d="M124.62,70.19l-.42-.33a8.12,8.12,0,0,1-3.3-7.42L121,62l.42.26c4.14,2.57,3.34,7.4,3.33,7.45Zm-3.12-7.12a7.55,7.55,0,0,0,2.63,5.9A6.73,6.73,0,0,0,121.5,63.07Z"/><path class="cls-1" d="M120.7,59.82l-.46-.27a8.16,8.16,0,0,1-4.2-7l0-.49.45.2c4.42,2,4.22,6.94,4.22,7Zm-4-6.67a7.52,7.52,0,0,0,3.34,5.52A6.72,6.72,0,0,0,116.72,53.15Z"/><path class="cls-1" d="M115.89,49.85l-.47-.24a8.18,8.18,0,0,1-4.55-6.74v-.49l.46.18c4.53,1.81,4.57,6.71,4.57,6.76Zm-4.31-6.46a7.52,7.52,0,0,0,3.62,5.35A6.76,6.76,0,0,0,111.58,43.39Z"/><path class="cls-1" d="M106.37,45.62l-.09-.48c-.91-4.79,3.19-7.46,3.24-7.49l.45-.29,0,.54a8.15,8.15,0,0,1-3.24,7.45Zm3-7.07a6.73,6.73,0,0,0-2.56,5.92A7.47,7.47,0,0,0,109.4,38.55Z"/><path class="cls-1" d="M101.33,55.43l-.11-.48c-1.09-4.75,2.92-7.57,3-7.6l.44-.31.07.54a8.12,8.12,0,0,1-3,7.56Zm2.77-7.18a6.7,6.7,0,0,0-2.34,6A7.53,7.53,0,0,0,104.1,48.25Z"/><path class="cls-1" d="M96.91,65.51,96.76,65c-1.44-4.65,2.35-7.77,2.38-7.8l.42-.34.11.53a8.12,8.12,0,0,1-2.38,7.76Zm2.22-7.37a6.75,6.75,0,0,0-1.88,6.18A7.51,7.51,0,0,0,99.13,58.14Z"/><path class="cls-1" d="M93.86,76l-.22-.45c-2.16-4.36,1.08-8,1.11-8.08l.36-.4.19.5a8.12,8.12,0,0,1-1.12,8.05Zm1-7.63A6.76,6.76,0,0,0,94,74.79,7.49,7.49,0,0,0,94.88,68.4Z"/><path class="cls-1" d="M97.72,86.14l-.45-.21C92.84,83.91,93,79,93,79l0-.54.46.27a8.17,8.17,0,0,1,4.21,7Zm-4-6.57a6.7,6.7,0,0,0,3.35,5.52A7.54,7.54,0,0,0,93.71,79.57Z"/><path class="cls-1" d="M104.75,92.36A7.83,7.83,0,0,1,98.62,89l-.28-.45.53,0a8.14,8.14,0,0,1,7.45,3.25l.27.41-.49.1A8.05,8.05,0,0,1,104.75,92.36ZM99.52,89.1a6.76,6.76,0,0,0,5.92,2.57A7.5,7.5,0,0,0,99.52,89.1Z"/><path class="cls-1" d="M111.46,93.46a7.91,7.91,0,0,1-2.28-.31l-.51-.17.38-.37a8.11,8.11,0,0,1,7.83-2.19l.47.14-.32.38A7,7,0,0,1,111.46,93.46ZM110,92.67a6.71,6.71,0,0,0,6.21-1.75A7.52,7.52,0,0,0,110,92.67Z"/><path class="cls-1" d="M119.15,89.32l.07-.53a8.14,8.14,0,0,1,4.89-6.49l.46-.17,0,.49c-.23,4.87-4.85,6.51-4.9,6.53Zm4.7-6.18A7.46,7.46,0,0,0,120,88.3,6.74,6.74,0,0,0,123.85,83.14Z"/><path class="cls-1" d="M124.93,79.9l-.24-.48a8.13,8.13,0,0,1,.39-8.12l.29-.4.25.42c2.55,4.15-.34,8.11-.37,8.15Zm.4-7.76a7.51,7.51,0,0,0-.29,6.45A6.74,6.74,0,0,0,125.33,72.14Z"/><path class="cls-1" d="M116.64,66.65l-.46-.28a8.16,8.16,0,0,1-4.15-7l0-.5.45.21c4.41,2.07,4.18,7,4.18,7ZM112.71,60a7.53,7.53,0,0,0,3.3,5.54A6.7,6.7,0,0,0,112.71,60Z"/><path class="cls-1" d="M108.63,55a7.73,7.73,0,0,1-3.33-.72l-.44-.22.38-.32c3.73-3.13,8.07-.85,8.12-.82l.47.25-.44.3A8.28,8.28,0,0,1,108.63,55Zm-2.54-1.09a7.53,7.53,0,0,0,6.42-.65A6.69,6.69,0,0,0,106.09,53.94Z"/><path class="cls-1" d="M102.89,67.66l-.13-.48c-1.26-4.71,2.64-7.67,2.68-7.7l.43-.32.09.52a8.19,8.19,0,0,1-2.68,7.68Zm2.5-7.28a6.73,6.73,0,0,0-2.12,6.1A7.53,7.53,0,0,0,105.39,60.38Z"/><path class="cls-1" d="M103.71,78.26l-.39-.32c-3.75-3.1-2.3-7.78-2.29-7.83l.17-.51.38.38a8.17,8.17,0,0,1,2.27,7.8Zm-2.19-7.38a6.73,6.73,0,0,0,1.81,6.19A7.53,7.53,0,0,0,101.52,70.88Z"/><path class="cls-1" d="M109.08,80.77a8.22,8.22,0,0,1-1.93-.22l-.52-.15L107,80a8.14,8.14,0,0,1,7.73-2.52l.47.13-.3.39A7.13,7.13,0,0,1,109.08,80.77ZM107.9,80A6.74,6.74,0,0,0,114,78,7.47,7.47,0,0,0,107.9,80Z"/><path class="cls-1" d="M116.72,75.55l-.22-.49a8.16,8.16,0,0,1,.69-8.1l.3-.39.24.43c2.4,4.24-.64,8.09-.67,8.13Zm.69-7.74a7.51,7.51,0,0,0-.53,6.43A6.72,6.72,0,0,0,117.41,67.81Z"/><path class="cls-1" d="M90.9,33.39l-.22-.24a5,5,0,0,1-1.19-4.79l.1-.29.22.2A4.64,4.64,0,0,1,91,33.09ZM89.79,28.8a4.56,4.56,0,0,0,.95,3.81A4.11,4.11,0,0,0,89.79,28.8Z"/><path class="cls-1" d="M89.63,26.74l-.27-.17A4.94,4.94,0,0,1,87,22.21l0-.3.27.14a4.65,4.65,0,0,1,2.35,4.37Zm-2.21-4.17A4.58,4.58,0,0,0,89.28,26,4.09,4.09,0,0,0,87.42,22.57Z"/><path class="cls-1" d="M87,20.55l-.28-.16a5,5,0,0,1-2.56-4.23v-.3l.27.13A4.63,4.63,0,0,1,87,20.23ZM84.58,16.5a4.52,4.52,0,0,0,2,3.35A4.1,4.1,0,0,0,84.58,16.5Z"/><path class="cls-1" d="M84,14.51l-.3-.15a4.93,4.93,0,0,1-2.8-4.06V10l.28.11A4.62,4.62,0,0,1,84,14.18Zm-2.67-3.9a4.58,4.58,0,0,0,2.23,3.23A4.08,4.08,0,0,0,81.37,10.61Z"/><path class="cls-1" d="M80.77,8.63l-.29-.14a4.92,4.92,0,0,1-2.88-4l0-.3.28.1a4.62,4.62,0,0,1,2.9,4ZM78,4.78A4.54,4.54,0,0,0,80.33,8,4.12,4.12,0,0,0,78,4.78Z"/><path class="cls-1" d="M75.33,1.77a4.68,4.68,0,0,1-2-.44L73,1.2l.23-.2A4.65,4.65,0,0,1,78.2.5l.28.16-.27.18A5,5,0,0,1,75.33,1.77ZM73.78,1.1a4.54,4.54,0,0,0,3.9-.39A4.09,4.09,0,0,0,73.78,1.1Z"/><path class="cls-1" d="M71.21,9.14l0-.29a4.62,4.62,0,0,1,2-4.53l.28-.17,0,.33a5,5,0,0,1-2,4.5Zm1.9-4.27A4.12,4.12,0,0,0,71.5,8.45,4.55,4.55,0,0,0,73.11,4.87Z"/><path class="cls-1" d="M68,15l-.06-.3a4.6,4.6,0,0,1,1.95-4.56l.27-.18,0,.33a4.91,4.91,0,0,1-2,4.54Zm1.82-4.31a4.08,4.08,0,0,0-1.54,3.6A4.54,4.54,0,0,0,69.78,10.71Z"/><path class="cls-1" d="M65,21l-.08-.29a4.66,4.66,0,0,1,1.67-4.68l.27-.19.05.32a4.94,4.94,0,0,1-1.67,4.65Zm1.56-4.41a4.06,4.06,0,0,0-1.32,3.69A4.57,4.57,0,0,0,66.58,16.63Z"/><path class="cls-1" d="M62.41,27.21l-.09-.29a4.62,4.62,0,0,1,1.43-4.75L64,22l.07.32A4.92,4.92,0,0,1,62.64,27Zm1.33-4.49a4.1,4.1,0,0,0-1.13,3.76A4.57,4.57,0,0,0,63.74,22.72Z"/><path class="cls-1" d="M61.25,33.74l-.16-.25a4.63,4.63,0,0,1,.21-5l.19-.26.15.29a5,5,0,0,1-.22,4.94Zm.18-4.67A4.07,4.07,0,0,0,61.26,33,4.58,4.58,0,0,0,61.43,29.07Z"/><path class="cls-1" d="M63.71,39.92l-.27-.13a4.64,4.64,0,0,1-2.38-4.36l0-.32.27.17a5,5,0,0,1,2.37,4.34Zm-2.26-4.1a4.09,4.09,0,0,0,1.88,3.45A4.62,4.62,0,0,0,61.45,35.82Z"/><path class="cls-1" d="M68,44.4a4.64,4.64,0,0,1-4-2.63l-.14-.3.33,0a5,5,0,0,1,4.19,2.62l.13.27H68Zm-3.49-2.48A4.09,4.09,0,0,0,67.85,44,4.55,4.55,0,0,0,64.52,41.92Z"/><path class="cls-1" d="M72.63,47.14a5,5,0,0,1-3.12-1.21l-.24-.23.31-.1a4.91,4.91,0,0,1,4.87.82l.23.2-.28.12A4.14,4.14,0,0,1,72.63,47.14Zm-2.57-1.28a4.1,4.1,0,0,0,3.87.65A4.59,4.59,0,0,0,70.06,45.86Z"/><path class="cls-1" d="M77.84,47.3a4.82,4.82,0,0,1-1.59-.25l-.31-.11.25-.22A5,5,0,0,1,81,45.57l.29.11-.21.22A4.27,4.27,0,0,1,77.84,47.3Zm-1.11-.52a4.13,4.13,0,0,0,3.82-.91A4.56,4.56,0,0,0,76.73,46.78Z"/><path class="cls-1" d="M82.63,45.47l.09-.31a5,5,0,0,1,3.6-3.4l.29,0-.06.29A4.65,4.65,0,0,1,83,45.42Zm3.44-3.23a4.57,4.57,0,0,0-2.84,2.7A4.07,4.07,0,0,0,86.07,42.24Z"/><path class="cls-1" d="M88,41.13,88,40.81a4.93,4.93,0,0,1,1.46-4.72l.23-.19.08.29a4.64,4.64,0,0,1-1.45,4.74Zm1.42-4.5a4.55,4.55,0,0,0-1.15,3.75A4.11,4.11,0,0,0,89.44,36.63Z"/><path class="cls-1" d="M90.34,34.81l-.14-.3a4.94,4.94,0,0,1,.16-4.93l.17-.25.17.25a4.62,4.62,0,0,1-.17,5Zm.19-4.73A4.57,4.57,0,0,0,90.4,34,4.12,4.12,0,0,0,90.53,30.08Z"/><path class="cls-1" d="M85,27.75l-.26-.19a5,5,0,0,1-2-4.52l0-.3.25.16a4.61,4.61,0,0,1,2,4.53Zm-1.9-4.32A4.54,4.54,0,0,0,84.72,27,4.09,4.09,0,0,0,83.12,23.43Z"/><path class="cls-1" d="M82.63,21.45l-.28-.16a4.92,4.92,0,0,1-2.55-4.24v-.3l.27.13a4.65,4.65,0,0,1,2.57,4.25Zm-2.42-4.06a4.6,4.6,0,0,0,2,3.36A4.1,4.1,0,0,0,80.21,17.39Z"/><path class="cls-1" d="M79.71,15.39l-.29-.15a5,5,0,0,1-2.77-4.1v-.3l.28.11a4.64,4.64,0,0,1,2.78,4.11Zm-2.63-3.93a4.58,4.58,0,0,0,2.2,3.25A4.06,4.06,0,0,0,77.08,11.46Z"/><path class="cls-1" d="M73.92,12.82l-.06-.3a4.61,4.61,0,0,1,2-4.55l.28-.18,0,.33a5,5,0,0,1-2,4.53Zm1.84-4.3a4.08,4.08,0,0,0-1.56,3.6A4.56,4.56,0,0,0,75.76,8.52Z"/><path class="cls-1" d="M70.85,18.78l-.07-.29a4.6,4.6,0,0,1,1.81-4.62l.26-.19.05.32a5,5,0,0,1-1.81,4.61Zm1.69-4.36a4.05,4.05,0,0,0-1.43,3.65A4.56,4.56,0,0,0,72.54,14.42Z"/><path class="cls-1" d="M68.16,24.91l-.08-.29a4.62,4.62,0,0,1,1.44-4.74l.26-.21.06.32a4.92,4.92,0,0,1-1.45,4.73Zm1.35-4.48a4.11,4.11,0,0,0-1.14,3.75A4.54,4.54,0,0,0,69.51,20.43Z"/><path class="cls-1" d="M66.31,31.31,66.18,31a4.63,4.63,0,0,1,.67-4.92l.22-.24.12.3a5,5,0,0,1-.68,4.9Zm.62-4.64a4.09,4.09,0,0,0-.53,3.89A4.6,4.6,0,0,0,66.93,26.67Z"/><path class="cls-1" d="M68.66,37.45l-.28-.12a4.63,4.63,0,0,1-2.57-4.24l0-.33.28.17a5,5,0,0,1,2.56,4.22Zm-2.44-4a4.09,4.09,0,0,0,2,3.36A4.56,4.56,0,0,0,66.22,33.46Z"/><path class="cls-1" d="M72.93,41.24a4.75,4.75,0,0,1-3.72-2.06L69,38.91l.33,0a4.9,4.9,0,0,1,4.52,2l.17.25-.3,0A3.93,3.93,0,0,1,72.93,41.24Zm-3.18-2a4.1,4.1,0,0,0,3.6,1.57A4.55,4.55,0,0,0,69.75,39.25Z"/><path class="cls-1" d="M77,41.91a5.18,5.18,0,0,1-1.39-.19l-.31-.1.24-.23a4.93,4.93,0,0,1,4.76-1.33l.28.08-.19.23A4.28,4.28,0,0,1,77,41.91Zm-.92-.48a4.12,4.12,0,0,0,3.78-1.07A4.59,4.59,0,0,0,76.09,41.43Z"/><path class="cls-1" d="M81.69,39.39l0-.32a5,5,0,0,1,3-4L85,35v.3a4.65,4.65,0,0,1-3,4Zm2.85-3.76a4.56,4.56,0,0,0-2.35,3.14A4.1,4.1,0,0,0,84.54,35.63Z"/><path class="cls-1" d="M85.2,33.66l-.14-.29a5,5,0,0,1,.23-4.94l.18-.24.16.25a4.68,4.68,0,0,1-.23,5Zm.25-4.72a4.57,4.57,0,0,0-.18,3.92A4.12,4.12,0,0,0,85.45,28.94Z"/><path class="cls-1" d="M80.16,25.6l-.28-.16a5,5,0,0,1-2.52-4.25v-.3l.27.12a4.61,4.61,0,0,1,2.54,4.27Zm-2.39-4.07a4.57,4.57,0,0,0,2,3.37A4.07,4.07,0,0,0,77.77,21.53Z"/><path class="cls-1" d="M75.29,18.54a4.61,4.61,0,0,1-2-.44L73,18l.23-.19a4.63,4.63,0,0,1,4.93-.5l.29.16-.27.18A5,5,0,0,1,75.29,18.54Zm-1.54-.67a4.58,4.58,0,0,0,3.9-.39A4.09,4.09,0,0,0,73.75,17.87Z"/><path class="cls-1" d="M71.8,26.22l-.08-.29a4.65,4.65,0,0,1,1.63-4.69l.26-.19.06.32A5,5,0,0,1,72,26Zm1.52-4.43A4.11,4.11,0,0,0,72,25.5,4.56,4.56,0,0,0,73.32,21.79Z"/><path class="cls-1" d="M72.3,32.66l-.24-.19a4.63,4.63,0,0,1-1.39-4.76l.1-.31.23.23a4.93,4.93,0,0,1,1.38,4.74ZM71,28.17a4.1,4.1,0,0,0,1.1,3.77A4.57,4.57,0,0,0,71,28.17Z"/><path class="cls-1" d="M75.56,34.19a4.27,4.27,0,0,1-1.17-.14L74.08,34l.22-.24A5,5,0,0,1,79,32.19l.29.08-.19.24A4.33,4.33,0,0,1,75.56,34.19Zm-.71-.45a4.07,4.07,0,0,0,3.73-1.22A4.58,4.58,0,0,0,74.85,33.74Z"/><path class="cls-1" d="M80.21,31l-.13-.29a4.94,4.94,0,0,1,.42-4.93l.18-.24.15.26a4.64,4.64,0,0,1-.41,5Zm.42-4.7a4.58,4.58,0,0,0-.32,3.91A4.1,4.1,0,0,0,80.63,26.31Z"/></g></g></svg>