<svg xmlns="http://www.w3.org/2000/svg" viewBox="0 0 168.41 129.43"><defs><style>.cls-1{fill:#ed1c24;}</style></defs><g id="Layer_2" data-name="Layer 2"><g id="Layer_1-2" data-name="Layer 1"><path class="cls-1" d="M98.82,97.22l-.8-.69a16.07,16.07,0,0,1-5.54-15l.22-1,.79.57c7.81,5.57,5.61,15,5.58,15.06ZM93.59,82.85A14.82,14.82,0,0,0,98,94.76,13.23,13.23,0,0,0,93.59,82.85Z"/><path class="cls-1" d="M93.18,76.15l-.87-.6A16,16,0,0,1,85.23,61.2l.11-1,.85.48c8.35,4.72,7.14,14.29,7.13,14.39ZM86.47,62.41a14.79,14.79,0,0,0,5.64,11.38A13.23,13.23,0,0,0,86.47,62.41Z"/><path class="cls-1" d="M85,55.81l-1-.4A16,16,0,0,1,73.84,43l-.11-1,.94.27c9.2,2.72,10.18,12.32,10.19,12.41ZM75.32,43.93a14.79,14.79,0,0,0,8.07,9.81A13.26,13.26,0,0,0,75.32,43.93Z"/><line class="cls-1" x1="108.44" y1="77.39" x2="102.18" y2="128.65"/><path class="cls-1" d="M102.78,129.43l-.49-.94a16,16,0,0,1,.35-16l.55-.8.53.81c5.22,8-.27,16-.33,16.06Zm.41-15.29a14.75,14.75,0,0,0-.26,12.7A13.26,13.26,0,0,0,103.19,114.14Z"/><path class="cls-1" d="M105.42,107.84l-.49-.93a16,16,0,0,1,.35-16l.55-.8.53.82c5.22,8-.28,16-.33,16Zm.41-15.28a14.75,14.75,0,0,0-.26,12.7A13.26,13.26,0,0,0,105.83,92.56Z"/><path class="cls-1" d="M108.05,86.26l-.48-.94a16,16,0,0,1,.35-16l.54-.81.53.82c5.22,8-.27,16-.33,16.06ZM108.46,71a14.82,14.82,0,0,0-.26,12.7A13.23,13.23,0,0,0,108.46,71Z"/><line class="cls-1" x1="108.44" y1="53.04" x2="156.96" y2="103.82"/><path class="cls-1" d="M160.12,106.13l-1-.22A16,16,0,0,1,146.94,95.5l-.27-.93,1,.11c9.53,1.06,12.18,10.33,12.21,10.43Zm-11.56-10a14.77,14.77,0,0,0,9.65,8.25A13.22,13.22,0,0,0,148.56,96.12Z"/><path class="cls-1" d="M145.1,90.4l-1-.21a16,16,0,0,1-12.14-10.41l-.28-.94,1,.11c9.53,1.06,12.18,10.34,12.21,10.43Zm-11.57-10a14.8,14.8,0,0,0,9.66,8.26A13.25,13.25,0,0,0,133.53,80.39Z"/><path class="cls-1" d="M130.07,74.68l-1-.22A16,16,0,0,1,116.9,64.05l-.28-.93,1,.11c9.53,1.06,12.18,10.34,12.2,10.43Zm-11.56-10a14.79,14.79,0,0,0,9.66,8.25A13.26,13.26,0,0,0,118.51,64.67Z"/><path class="cls-1" d="M115.05,59l-1-.21a16,16,0,0,1-12.15-10.41l-.27-.93,1,.1c9.54,1.07,12.19,10.34,12.21,10.44ZM103.49,49a14.79,14.79,0,0,0,9.66,8.25A13.26,13.26,0,0,0,103.49,49Z"/><line class="cls-1" x1="61.48" y1="72.97" x2="50.53" y2="116.77"/><path class="cls-1" d="M49.45,123.91l-.37-1A16.05,16.05,0,0,1,51.4,107.1l.64-.73.43.87c4.19,8.63-2.24,15.82-2.31,15.9Zm2.29-15.12a14.79,14.79,0,0,0-1.82,12.58A13.26,13.26,0,0,0,51.74,108.79Z"/><path class="cls-1" d="M54.73,102.82l-.37-1A16,16,0,0,1,56.68,86l.64-.73.43.88C61.94,94.77,55.51,102,55.44,102ZM57,87.7a14.76,14.76,0,0,0-1.82,12.57A13.27,13.27,0,0,0,57,87.7Z"/><path class="cls-1" d="M60,81.72l-.37-1A16,16,0,0,1,62,64.91l.64-.74.42.88c4.19,8.63-2.24,15.82-2.3,15.89ZM62.3,66.6a14.8,14.8,0,0,0-1.83,12.57A13.23,13.23,0,0,0,62.3,66.6Z"/><line class="cls-1" x1="69.29" y1="88.73" x2="81.83" y2="116.77"/><path class="cls-1" d="M82.41,116.37l-.9-.54a16,16,0,0,1-8-13.89l.06-1,.87.43c8.62,4.2,8,13.83,8,13.92Zm-7.53-13.3a14.77,14.77,0,0,0,6.32,11A13.23,13.23,0,0,0,74.88,103.07Z"/><path class="cls-1" d="M73.54,96.52,72.63,96a16,16,0,0,1-7.94-13.88l0-1,.87.42c8.63,4.21,8,13.83,8,13.93ZM66,83.21a14.77,14.77,0,0,0,6.33,11A13.27,13.27,0,0,0,66,83.21Z"/><line class="cls-1" x1="136.61" y1="46.64" x2="167.92" y2="88.73"/><path class="cls-1" d="M168.41,88.22l-1-.34a16,16,0,0,1-10.78-11.82l-.16-1,.95.23c9.33,2.22,10.82,11.75,10.83,11.85ZM158.16,76.87a14.78,14.78,0,0,0,8.57,9.38A13.24,13.24,0,0,0,158.16,76.87Z"/><path class="cls-1" d="M155.43,70.78l-1-.34a16,16,0,0,1-10.78-11.83l-.16-1,.95.23c9.33,2.22,10.82,11.76,10.84,11.85ZM145.18,59.43a14.77,14.77,0,0,0,8.57,9.37A13.21,13.21,0,0,0,145.18,59.43Z"/><path class="cls-1" d="M142.45,53.33l-1-.34a16,16,0,0,1-10.78-11.83l-.15-.95.94.22c9.33,2.23,10.82,11.76,10.84,11.85ZM132.2,42a14.8,14.8,0,0,0,8.57,9.37A13.21,13.21,0,0,0,132.2,42Z"/><line class="cls-1" x1="20.79" y1="78.43" x2="50.53" y2="63.53"/><path class="cls-1" d="M33.83,73.58h-1l.38-.89c3.82-8.8,13.47-8.61,13.56-8.61l1.06,0-.51.93A16,16,0,0,1,33.83,73.58Zm11.76-8.17a13.22,13.22,0,0,0-10.72,6.81A14.8,14.8,0,0,0,45.59,65.41Z"/><path class="cls-1" d="M14.39,83.32h-1l.38-.89c3.82-8.8,13.47-8.61,13.56-8.61l1.06,0-.51.92A16,16,0,0,1,14.39,83.32Zm11.76-8.17A13.28,13.28,0,0,0,15.42,82,14.8,14.8,0,0,0,26.15,75.15Z"/><path class="cls-1" d="M58.56,39.92c-9.35,0-13.12-8.65-13.15-8.73l-.41-1,1,.08A16.06,16.06,0,0,1,59.46,39l.4.89-1,0ZM47.12,31.7a13.23,13.23,0,0,0,10.66,6.91A14.8,14.8,0,0,0,47.12,31.7Z"/><path class="cls-1" d="M75.52,53.53c-9.35,0-13.11-8.65-13.15-8.74l-.41-1,1,.08a16,16,0,0,1,13.41,8.72l.4.89-1,0ZM64.08,45.31a13.23,13.23,0,0,0,10.66,6.91A14.8,14.8,0,0,0,64.08,45.31Z"/><path class="cls-1" d="M91.91,34.24l-.44-.86c-4.4-8.52,1.84-15.88,1.91-16l.69-.79.39,1a16,16,0,0,1-1.92,15.88Zm1.76-15a13.22,13.22,0,0,0-1.51,12.61A14.82,14.82,0,0,0,93.67,19.2Z"/><path class="cls-1" d="M87.16,55.46l-.44-.86c-4.41-8.52,1.84-15.87,1.91-16l.69-.79.39,1a16,16,0,0,1-1.93,15.89Zm1.75-15A13.27,13.27,0,0,0,87.4,53,14.75,14.75,0,0,0,88.91,40.42Z"/><path class="cls-1" d="M117.58,26.1v-1c0-9.59,9-13.23,9.06-13.26l1-.39-.1,1a16,16,0,0,1-9,13.2Zm8.5-12.54a13.26,13.26,0,0,0-7.16,10.5A14.85,14.85,0,0,0,126.08,13.56Z"/><path class="cls-1" d="M103.57,42.74v-1c0-9.59,9-13.23,9.06-13.26l1-.39-.1,1.05a16,16,0,0,1-9,13.2Zm8.5-12.54a13.22,13.22,0,0,0-7.16,10.49A14.79,14.79,0,0,0,112.07,30.2Z"/><path class="cls-1" d="M147.07,38.23a15.25,15.25,0,0,1-6.56-1.41l-.87-.44.75-.63c7.35-6.16,15.89-1.67,16-1.62l.92.5-.87.6A16.23,16.23,0,0,1,147.07,38.23Zm-5-2.15a14.8,14.8,0,0,0,12.64-1.28A13.26,13.26,0,0,0,142.07,36.08Z"/><path class="cls-1" d="M125.32,38.23a15.25,15.25,0,0,1-6.56-1.41l-.86-.44.74-.63c7.35-6.16,15.89-1.67,16-1.62l.93.5-.87.6A16.26,16.26,0,0,1,125.32,38.23Zm-5-2.15A14.8,14.8,0,0,0,133,34.8,13.26,13.26,0,0,0,120.32,36.08Z"/><path class="cls-1" d="M27.94,55.85a16.51,16.51,0,0,1-7.08-1.62l-.93-.5.87-.6a16,16,0,0,1,15.92-1.59l.86.44-.74.63A13.56,13.56,0,0,1,27.94,55.85Zm-5.42-2.29a13.24,13.24,0,0,0,12.63-1.28A14.78,14.78,0,0,0,22.52,53.56Z"/><path class="cls-1" d="M49.69,55.85a16.51,16.51,0,0,1-7.08-1.62l-.93-.5.87-.6a16,16,0,0,1,15.91-1.59l.87.44-.75.63A13.52,13.52,0,0,1,49.69,55.85Zm-5.43-2.29A13.26,13.26,0,0,0,56.9,52.28,14.8,14.8,0,0,0,44.26,53.56Z"/><path class="cls-1" d="M83.62,93.05l-.79-.7a16,16,0,0,1-5.39-15.06l.23-1,.78.57c7.75,5.65,5.45,15,5.43,15.12ZM78.54,78.62a14.8,14.8,0,0,0,4.29,12A13.26,13.26,0,0,0,78.54,78.62Z"/><path class="cls-1" d="M78.37,71.94l-.79-.7a16,16,0,0,1-5.39-15.06l.23-.94.78.57c7.75,5.65,5.46,15,5.43,15.11ZM73.29,57.52a14.77,14.77,0,0,0,4.29,11.95A13.25,13.25,0,0,0,73.29,57.52Z"/><path class="cls-1" d="M135.14,120.43l-.93-.5a16.05,16.05,0,0,1-8.68-13.45v-1l.89.38c8.83,3.74,8.73,13.39,8.73,13.48Zm-8.24-12.89a14.81,14.81,0,0,0,6.91,10.66A13.25,13.25,0,0,0,126.9,107.54Z"/><path class="cls-1" d="M125.22,101.07l-.93-.5a16,16,0,0,1-8.67-13.44v-1l.89.38c8.84,3.73,8.73,13.38,8.73,13.48ZM117,88.18a14.8,14.8,0,0,0,6.9,10.67A13.23,13.23,0,0,0,117,88.18Z"/><path class="cls-1" d="M70.33,14.7l-.91-.36c-8.91-3.54-9-13.19-9-13.29V0l.94.48a16,16,0,0,1,9,13.24ZM61.77,2.2a13.25,13.25,0,0,0,7.14,10.5A14.74,14.74,0,0,0,61.77,2.2Z"/><path class="cls-1" d="M80.67,33.82l-.9-.35c-8.91-3.54-9-13.19-9-13.29V19.13l.94.48a16,16,0,0,1,9,13.24Zm-8.55-12.5a13.25,13.25,0,0,0,7.14,10.51A14.8,14.8,0,0,0,72.12,21.32Z"/><path class="cls-1" d="M52.79,49.21a15.83,15.83,0,0,1-10-3.52L42.1,45l.88-.42c8.67-4.11,15.8,2.37,15.87,2.44l.78.72-1,.36A17,17,0,0,1,52.79,49.21Zm-8.26-3.85a14.73,14.73,0,0,0,12.55,1.93A13.26,13.26,0,0,0,44.53,45.36Z"/><path class="cls-1" d="M31.74,43.75a15.77,15.77,0,0,1-10-3.52l-.73-.64.88-.42c8.66-4.12,15.8,2.37,15.87,2.44l.78.72-1,.36A16.88,16.88,0,0,1,31.74,43.75Zm-8.26-3.84A14.8,14.8,0,0,0,36,41.84,13.26,13.26,0,0,0,23.48,39.91Z"/><path class="cls-1" d="M10.69,38.3a15.81,15.81,0,0,1-10-3.52L0,34.13l.88-.41c8.66-4.12,15.8,2.37,15.87,2.43l.77.72-1,.36A17,17,0,0,1,10.69,38.3ZM2.42,34.46A14.8,14.8,0,0,0,15,36.38,13.25,13.25,0,0,0,2.42,34.46Z"/></g></g></svg>