<svg xmlns="http://www.w3.org/2000/svg" viewBox="0 0 73.19 79.41"><defs><style>.cls-1{fill:#064747;}</style></defs><g id="Layer_2" data-name="Layer 2"><g id="Layer_1-2" data-name="Layer 1"><path class="cls-1" d="M8.19,79.41H8.1l-4.52,0,1.78-4.15C23,34.26,67.82,35,68.29,35l4.9.13-2.35,4.31C49.37,78.7,10.9,79.41,8.19,79.41ZM62.81,41.27c-11,1-36.33,6.21-49.78,31.8A68.76,68.76,0,0,0,62.81,41.27Z"/><path class="cls-1" d="M66,39.2C22.26,39.2,3.05,6.38,2.24,5L0,1,4.49.5C48.78-4.83,70.63,34.34,70.84,34.74l2.35,4.31-4.91.12ZM10.21,6.05A68.73,68.73,0,0,0,62.69,33.13C56.26,24.1,39.06,4.83,10.21,6.05Z"/></g></g></svg>