<svg xmlns="http://www.w3.org/2000/svg" viewBox="0 0 73.19 79.41"><defs><style>.cls-1{fill:#064747;}</style></defs><g id="Layer_2" data-name="Layer 2"><g id="Layer_1-2" data-name="Layer 1"><path class="cls-1" d="M65,79.41c-2.7,0-41.18-.71-62.65-39.94L0,35.16,4.9,35c.45,0,45.31-.77,62.93,40.2l1.79,4.15-4.52,0ZM10.42,41.32A68.71,68.71,0,0,0,60.15,73.06C46.83,47.82,21.46,42.45,10.42,41.32Z"/><path class="cls-1" d="M7.15,39.2l-2.24,0L0,39.05l2.34-4.31C2.57,34.34,24.43-4.82,68.71.5L73.19,1,71,5C70.15,6.38,50.93,39.2,7.15,39.2ZM60.55,6c-27.08,0-43.65,18.4-50,27.13A68.72,68.72,0,0,0,63,6.05C62.16,6,61.35,6,60.55,6Z"/></g></g></svg>