<svg xmlns="http://www.w3.org/2000/svg" viewBox="0 0 37.34 40.56"><defs><style>.cls-1{fill:#fff;}</style></defs><g id="Layer_2" data-name="Layer 2"><g id="Layer_1-2" data-name="Layer 1"><path class="cls-1" d="M4.13,40.56H1.83l.89-2.08c9-20.93,31.93-20.57,32.17-20.55l2.45.07-1.18,2.15C25.19,40.2,5.52,40.56,4.13,40.56ZM32.15,21c-5.62.51-18.69,3.14-25.6,16.35A35.19,35.19,0,0,0,32.15,21Z"/><path class="cls-1" d="M33.74,20A38,38,0,0,1,1.12,2.49L0,.52,2.24.25c22.64-2.72,33.81,17.3,33.92,17.51l1.17,2.15L34.88,20ZM5.1,3A35.19,35.19,0,0,0,32.09,17C28.83,12.35,20,2.36,5.1,3Z"/></g></g></svg>