<svg xmlns="http://www.w3.org/2000/svg" viewBox="0 0 88.56 65.51"><defs><style>.cls-1{fill:#b48a42;}</style></defs><g id="Layer_2" data-name="Layer 2"><g id="Layer_1-2" data-name="Layer 1"><path class="cls-1" d="M49,65.51l-4-1.76C.15,44.26,0,8.77,0,7.27L0,3.11,4,4.46c24,8.2,35,23.1,40,34.15a54.83,54.83,0,0,1,5.16,22.5ZM6.41,11.77C7.86,20.91,14.29,42,42.89,56.17,41.71,46.31,35.75,23.67,6.41,11.77Z"/><path class="cls-1" d="M45.4,65.51l-.14-4.41C44,20.16,83.4,1.82,83.79,1.64L87.41,0,88,3.92c2.52,16.64-3.4,32.3-17.12,45.28A81.9,81.9,0,0,1,49.45,63.75ZM82.51,9.14c-8.72,5.18-29.67,20.3-31.19,46.92C61,50.61,83.83,35,82.51,9.14Z"/></g></g></svg>