<svg xmlns="http://www.w3.org/2000/svg" viewBox="0 0 377.2 113.39"><defs><style>.cls-1{fill:#064747;}.cls-2{fill:#ae2a3d;}.cls-3{fill:#fff;}.cls-4{fill:#211e1f;}.cls-5{fill:#00513a;}.cls-6{fill:#231f20;}</style></defs><g id="Layer_2" data-name="Layer 2"><g id="Layer_1-2" data-name="Layer 1"><g id="logo"><path class="cls-1" d="M222.11,22.53l1.52-3.17L225,16.5s1.33-2.52,1.9-4a6.41,6.41,0,0,0,.43-3,1.08,1.08,0,0,0-.67-.84,1.53,1.53,0,0,1,.46.86,1.24,1.24,0,0,1-.19.69,1.12,1.12,0,0,0,0-.55c0-.12-.29-.16-.29-.16V9.13a.81.81,0,0,0,0-.46.13.13,0,0,0,0-.07c-.13-.11-.46,0-.46,0s0-.55-.27-.67-.57.16-.57.16V7.46c0-.15,0-.57-.61-.59s-.74,1.35-.74,1.48,0,.52-.21.63-.29-.23-.29-.23a3.61,3.61,0,0,0-.18-.6c-.07-.11-.43-.33-.61-.1s.07,1.12.47,2.15a2.9,2.9,0,0,1-.21,2.16s-2.2,3.6-2.56,4.16c-.59.32-.92,1.5-.92,1.5s-2.85,5.23-3.85,6.63a10.39,10.39,0,0,0-2.47,3c-.3.5-.51.91-.6,1.1a6.39,6.39,0,0,0-1,1,5.28,5.28,0,0,0-1.23.39,1.72,1.72,0,0,1-.78.24l0-.57a2.57,2.57,0,0,0-.32-1.09c-.24-.28-.64,0-.64,0a5.37,5.37,0,0,0-2.11-2.2,3,3,0,0,1-.69-.43,1.33,1.33,0,0,1,0-.57c-.73-.21-1.3.84-1.3.84l-1,.48a7.65,7.65,0,0,0-2,2.27s-.29.42.33,2.06a3.1,3.1,0,0,0,1.9,2c-.81.25,0,.75,0,.75a8.56,8.56,0,0,1,.87.66.77.77,0,0,0,.83.31l.22.17a3.55,3.55,0,0,0,.19,1.34c-3.2,4.82-2.74,8.42-2.74,8.42s.05,1.62.07,1.73a3.46,3.46,0,0,0,.26.49,4.16,4.16,0,0,1,.28,1.28c.14,1,.39.78.39.78a6.64,6.64,0,0,1,.66.2c.14.05.22,1,.23,1.05s-.07,0-.41.32-.16,1.82-.16,1.82.2.45.21.51a4.07,4.07,0,0,0,.39.64,6.38,6.38,0,0,1,.65.61,3,3,0,0,0,.39.48,7.2,7.2,0,0,0,.3.75c.07.12.76,1.13.78,1.25a3.53,3.53,0,0,0,.53,1c.19.18,1.07,1.12,1.7,1.89a.9.9,0,0,0,1.3.24,14.41,14.41,0,0,1,.05,2.9,16.57,16.57,0,0,0-.35,2.34,8,8,0,0,0-.07,1.1s-.36,0-.4,0a.66.66,0,0,0-.87.44,10.72,10.72,0,0,0-3.3-.4c-1.4.17-.77,3.28-.77,3.28a6.1,6.1,0,0,0,1,2.2,1.89,1.89,0,0,1-.06,1.15,5.63,5.63,0,0,0,1.78,5,1.21,1.21,0,0,0,1.85,0,9.08,9.08,0,0,0,0-2.08,11.88,11.88,0,0,1-.1-2.9l.17,0s-.2.78.06,1,1.41.15,1.58-.37c.09.43.19.92.21.95s.42,1,.5,1.24.45,1.94.45,1.94v3.28a2,2,0,0,1,.47-.45l.06,1-.06.17-.9,2.16a4.58,4.58,0,0,0-.35,1.84c.17.46,1.66.13,1.66.13a2,2,0,0,0,.72.24c.34,0,3.59-.08,3.59-.08l1.64-.08a.24.24,0,0,0,.21-.22,4.45,4.45,0,0,0,0-.89c-.12-.69-1.23-.82-1.23-.82a2.26,2.26,0,0,1-.56-.59,9,9,0,0,0-1.18-1.18,3.1,3.1,0,0,0-.07-.82,1,1,0,0,0-.45-.65v-.47c.92-.39,1-.79,1-.87a6.38,6.38,0,0,1,.17-1,5.66,5.66,0,0,0,0-1.46,10,10,0,0,0-.64-1.26c0-.46-.2-1.35-.2-1.53s-.35-1.43-.35-1.43v-.33a12.26,12.26,0,0,0,2.44-1,20.24,20.24,0,0,0,4.29-2.46,7.52,7.52,0,0,0,.68-1.4,4.61,4.61,0,0,1,.41-.8,11.18,11.18,0,0,0,2.63-7.27,8.79,8.79,0,0,0-.14-1.09,2.59,2.59,0,0,0-.24-1.19c-.92-.87-1.41-3.23-1.49-3.42a9.25,9.25,0,0,1,0-1.83c0-.27-.57-3.58-.57-3.58s-.19-1.19-.23-2a3,3,0,0,0-.8-1.59,12.13,12.13,0,0,1,0-2c.1-.82-.48-1.18-1-2.85a13.45,13.45,0,0,0-1.4-4.25s-.46-1.46-.8-2.48a20.17,20.17,0,0,1-.6-3.64,4.46,4.46,0,0,1,.44-1.83C219.66,27,222.11,22.53,222.11,22.53ZM208.54,46.47a1.16,1.16,0,0,0,.7.52,6,6,0,0,0-.15,2.62c.1.47-.09.39-.09.39s-.31.32-.39.07a6.77,6.77,0,0,1,0-2.45A1,1,0,0,0,208.54,46.47Zm.7,5.23a4.43,4.43,0,0,1-.14.44,1.5,1.5,0,0,1-.16.2.76.76,0,0,0-.07-.45c-.11-.13-.23-.24-.24-.31s-.15-.41,0-.63c0,0,.24.42.42.47A.26.26,0,0,1,209.24,51.7Zm8.43,12.87a11.93,11.93,0,0,0-2,.39s.63-4,.76-4.47.37-1.85.37-1.93.25-.74.25-.74a24.61,24.61,0,0,0,.36,3,8.57,8.57,0,0,1,.25,1.74Z"/><path class="cls-2" d="M347.73,101.53l-.56-11.43-8.81.37-.34.8s-1.12,0-2.65.12-3.75.18-6.5.29l-9.65.34c-3.64.12-7.65.24-11.88.32-16.88.4-37.14.71-50.53-.17l-.9-.06a13.2,13.2,0,0,1-1.36-.15h0a1.13,1.13,0,0,1-.41-.11l-14.55,3.42c-26.54-.72-53.11-1.37-79.72-1.65l-5-.06-5,0-10-.05h-5l-5,0-10,0-10,.12-5,.06c-1.67,0-3.34,0-5,.08l-10,.21-5,.11c-1.66,0-3.33.11-5,.16L68,96.61l-1.14-.45c.65,1.53,4.31,2.59,5.79,3.17a71.39,71.39,0,0,0,7.17,2.33l4.29,1.17a72.19,72.19,0,0,1,10.31,3.47,95.85,95.85,0,0,0,12.94,4.77l28.41,2.31c1.86-.06,3.71-.11,5.54-.14,2.86,0,5.73-.13,8.59-.24s5.73-.26,8.59-.42l4.3-.26.28,0c1.34-.09,2.67-.19,4-.3,2.86-.23,5.71-.49,8.57-.77,1-.09,1.93-.19,2.9-.3h.07c4.23-.46,8.46-1,12.69-1.54,5.23-.64,10.45-1.24,15.71-1.61q19.07-1.3,38.15-2.48h.16l7.52-.46c28.46-1,56.73-2.11,85.16-3.56l.69.6Z"/><path class="cls-3" d="M227.16,10.15s-.33,0-.34-.24-.36-.45-.36-.54a2.41,2.41,0,0,1,0-.38l.07-.34s.1-.18.4.1a1.7,1.7,0,0,1,.31,1Z"/><path class="cls-3" d="M208.53,46.44l0,0Z"/><path class="cls-4" d="M208.5,46.45l0,0h0l.05,0h0a0,0,0,0,1,0,0Z"/><path class="cls-3" d="M226.56,8.59c.1,0,.18,0,.24.09a1.49,1.49,0,0,1,.15.2,1.69,1.69,0,0,1,.18.47.89.89,0,0,1,0,.51,1.6,1.6,0,0,1-.23.45,2,2,0,0,1-.74.63,2.64,2.64,0,0,1-.94.26,2.76,2.76,0,0,0,.93-.27,2,2,0,0,0,.74-.63,1.88,1.88,0,0,0,.22-.45.91.91,0,0,0,0-.49,1.63,1.63,0,0,0-.18-.46,1,1,0,0,0-.15-.19c-.06-.06-.13-.11-.19-.08Z"/><path class="cls-4" d="M208.5,46.45l0,0h0l.05,0h0a0,0,0,0,1,0,0Z"/><path class="cls-3" d="M205.68,36.33a2.61,2.61,0,0,0,.5.85,5.7,5.7,0,0,0,.7.69l-.1,0a1.78,1.78,0,0,1,.13-.45,1.19,1.19,0,0,1,.25-.38,1.14,1.14,0,0,1,.35-.27,1.63,1.63,0,0,1,.42-.11,1.34,1.34,0,0,0-.39.16,1.43,1.43,0,0,0-.32.28,1.68,1.68,0,0,0-.21.37,1.91,1.91,0,0,0-.11.41V38L206.8,38a2.9,2.9,0,0,1-.36-.34,3,3,0,0,1-.33-.38,2.8,2.8,0,0,1-.27-.43A1.7,1.7,0,0,1,205.68,36.33Z"/><path class="cls-3" d="M213.07,27.62a3.58,3.58,0,0,0,1.67,1.53,3,3,0,0,0,.53.19,2.68,2.68,0,0,0,.27.07l.28.05a5.51,5.51,0,0,0,.57.06H217l-.57.07a5.56,5.56,0,0,1-.58,0,3.83,3.83,0,0,1-1.14-.29,3.06,3.06,0,0,1-1-.68,3.32,3.32,0,0,1-.38-.46A2.69,2.69,0,0,1,213.07,27.62Z"/><path class="cls-3" d="M224.49,8.59a.36.36,0,0,1-.32-.05.19.19,0,0,1-.07-.16l0-.17a5.33,5.33,0,0,1,.17-.66h0a.13.13,0,0,0-.13,0,.14.14,0,0,1,.14-.06h0c-.05.23-.1.45-.14.67s-.06.23,0,.3A.38.38,0,0,0,224.49,8.59Z"/><path class="cls-3" d="M224.72,9a1.55,1.55,0,0,1,.24-.19h0a3.37,3.37,0,0,1,.12-.48,4.63,4.63,0,0,1-.09.49h0Z"/><path class="cls-5" d="M210.45,55.38a7.14,7.14,0,0,1-1-1.62c-.17-.55-.42-1.25-.42-1.26l.05,0s.26.71.42,1.26a7.9,7.9,0,0,0,1.05,1.61Z"/><path class="cls-3" d="M210,56.59a3.6,3.6,0,0,0-.49.67,3.15,3.15,0,0,0-.33.78,2.15,2.15,0,0,0-.09.84,2.27,2.27,0,0,0,.22.81,2.09,2.09,0,0,1-.23-.81,2.2,2.2,0,0,1,.08-.85,3.13,3.13,0,0,1,.32-.78,3.75,3.75,0,0,1,.49-.69Z"/><path class="cls-3" d="M211.27,58.8a1.31,1.31,0,0,1-.3.57,2.08,2.08,0,0,1-.46.43,2.67,2.67,0,0,0,.45-.44,1.5,1.5,0,0,0,.27-.57Z"/><path class="cls-3" d="M209.42,30.39a1.46,1.46,0,0,1,.65.65,2.32,2.32,0,0,1,.24.91,3.72,3.72,0,0,1-.06.94,2.45,2.45,0,0,1-.29.89,1.61,1.61,0,0,0,.17-.43,5,5,0,0,0,.14-1.4,2.35,2.35,0,0,0-.23-.9A1.52,1.52,0,0,0,209.42,30.39Z"/><path class="cls-3" d="M205.85,39.26a10.34,10.34,0,0,1,1.55-1.41,8.07,8.07,0,0,1,.88-.55,5.73,5.73,0,0,1,1-.4v0a6.11,6.11,0,0,1,.07-1,3.63,3.63,0,0,1,.28-.92,2.92,2.92,0,0,0-.25.92,6.2,6.2,0,0,0-.07,1h0a6.78,6.78,0,0,0-1.83,1,10,10,0,0,0-.81.65A10.44,10.44,0,0,0,205.85,39.26Z"/><path class="cls-3" d="M222.7,44.59a.9.9,0,0,1-.08.28,2,2,0,0,1-.14.25,3.68,3.68,0,0,1-.34.44,3.65,3.65,0,0,0,.32-.45c0-.08.09-.17.13-.25a.68.68,0,0,0,.07-.27Z"/><path class="cls-3" d="M223,44.92a1.25,1.25,0,0,1-.12.46,2.3,2.3,0,0,1-.23.4,2.42,2.42,0,0,1-.31.33,3.17,3.17,0,0,1-.35.29l.35-.29a2.45,2.45,0,0,0,.29-.35,1.74,1.74,0,0,0,.23-.4,1.34,1.34,0,0,0,.1-.44Z"/><path class="cls-3" d="M209.25,47a.64.64,0,0,0,.43,0,.79.79,0,0,0,.38-.25.89.89,0,0,1-.37.27.69.69,0,0,1-.45,0Z"/><path class="cls-3" d="M204.81,50.27a5,5,0,0,1,.42-.64,3,3,0,0,1,.54-.53,2.71,2.71,0,0,0-.52.55,5.35,5.35,0,0,0-.41.64Z"/><path class="cls-3" d="M212.35,29.64a1.49,1.49,0,0,1-.59.72,1.82,1.82,0,0,1-.43.19,1.73,1.73,0,0,1-.45.05,3,3,0,0,0,.43-.11,1.66,1.66,0,0,0,.4-.2,1.64,1.64,0,0,0,.35-.29A2,2,0,0,0,212.35,29.64Z"/><path class="cls-3" d="M217.66,64.55a6.13,6.13,0,0,0-.07.87,2.49,2.49,0,0,0,.08.86,2.78,2.78,0,0,1-.1-.86,8.49,8.49,0,0,1,.05-.88Z"/><path class="cls-3" d="M210.16,66.14a9.88,9.88,0,0,0,0,1.72,7.93,7.93,0,0,0,.14.85,5.69,5.69,0,0,0,.25.83,7.81,7.81,0,0,1-.26-.82,8.41,8.41,0,0,1-.15-.85,9.12,9.12,0,0,1,0-1.73Z"/><path class="cls-3" d="M208.89,66.58a3.85,3.85,0,0,0-.08.58c0,.19,0,.39,0,.58,0-.19,0-.39,0-.58a3.93,3.93,0,0,1,.06-.59Z"/><path class="cls-3" d="M216.66,79.4l-.28-.27a2.61,2.61,0,0,1-.27-.3c-.06-.11-.09-.25-.14-.37a.45.45,0,0,0-.27-.27.47.47,0,0,1,.28.27c.06.12.09.25.15.36a1.48,1.48,0,0,0,.27.29l.29.25Z"/><path class="cls-3" d="M213,81.11a1.07,1.07,0,0,0,.5.07.53.53,0,0,0,.24-.06A.75.75,0,0,0,214,81c.12-.12.22-.27.35-.38a.6.6,0,0,1,.48-.15.58.58,0,0,0-.46.17c-.12.12-.22.26-.34.39a.68.68,0,0,1-.21.17.66.66,0,0,1-.25.07A1.25,1.25,0,0,1,213,81.11Z"/><path class="cls-3" d="M212.2,80.77a1.94,1.94,0,0,1,.33-.51,1.11,1.11,0,0,1,.48-.35,1.68,1.68,0,0,1,.59-.07l.29,0,.14,0a.19.19,0,0,0,.12-.09.19.19,0,0,1-.12.09l-.14,0-.29,0a1.6,1.6,0,0,0-.58.08,1.23,1.23,0,0,0-.47.35,2,2,0,0,0-.31.51Z"/><path class="cls-3" d="M209.41,72.78l.06-.44c0-.15,0-.3,0-.44a3.61,3.61,0,0,0-.16-.87,3.64,3.64,0,0,1,.18.87c0,.15,0,.29,0,.44l-.05.45Z"/><path class="cls-3" d="M208.58,69.54a.85.85,0,0,1-.29-.66,1.51,1.51,0,0,1,.06-.37,1.22,1.22,0,0,1,.07-.17l.08-.16a2,2,0,0,0-.12.34,2.23,2.23,0,0,0,0,.36,1,1,0,0,0,.06.35A.84.84,0,0,0,208.58,69.54Z"/><path class="cls-3" d="M222.76,42.61c-.26.8-.5,1.61-.69,2.42a10.41,10.41,0,0,0-.23,1.24c-.07.41,0,.84-.09,1.26A6,6,0,0,1,221,50a3.47,3.47,0,0,1-.78,1,3.36,3.36,0,0,1-1,.61,3.37,3.37,0,0,0,1-.63,3.59,3.59,0,0,0,.76-1,5.94,5.94,0,0,0,.66-2.41c0-.21,0-.42,0-.62v-.32l0-.32A10.19,10.19,0,0,1,222,45a25.25,25.25,0,0,1,.66-2.45Z"/><path class="cls-3" d="M209.42,50.28c.18.14.36.27.55.39l.57.35a9.33,9.33,0,0,0,1.19.58A7.09,7.09,0,0,0,213,52l.33.07.32,0c.22,0,.44,0,.67.06a5.45,5.45,0,0,1-1.34,0,5.77,5.77,0,0,1-1.29-.37,7.61,7.61,0,0,1-1.2-.63A6.18,6.18,0,0,1,209.42,50.28Z"/><path class="cls-3" d="M228.07,2.67a2.4,2.4,0,0,1-.33.61l0,0A2,2,0,0,0,228.07,2.67Z"/><path class="cls-3" d="M227.22,3.73a2.21,2.21,0,0,1-.64.26l0-.07a1.79,1.79,0,0,0,.63-.24Z"/><path class="cls-3" d="M225.88,4a1.85,1.85,0,0,1-.65-.22l0-.06a1.8,1.8,0,0,0,.63.21Z"/><path class="cls-3" d="M224.68,3.37a2.11,2.11,0,0,1-.37-.58l0,0a2.24,2.24,0,0,0,.39.56Z"/><polygon class="cls-3" points="228 2.61 227.63 3.13 227.6 3.1 228 2.61"/><path class="cls-3" d="M227.1,3.5a1.85,1.85,0,0,1-.62.18V3.62a2.13,2.13,0,0,0,.61-.17Z"/><path class="cls-3" d="M225.83,3.66a1.91,1.91,0,0,1-.6-.23l0-.06a2,2,0,0,0,.58.22Z"/><polygon class="cls-3" points="224.73 3.02 224.38 2.48 224.41 2.47 224.77 2.98 224.73 3.02"/><path class="cls-3" d="M223.15,66.94c.28-.44.54-.9.78-1.37a14.72,14.72,0,0,0,.65-1.46,11.12,11.12,0,0,0,.46-1.52,9.38,9.38,0,0,0,.23-1.59,9.57,9.57,0,0,1-.19,1.6,11.72,11.72,0,0,1-.43,1.54,15.19,15.19,0,0,1-1.37,2.9Z"/><path class="cls-3" d="M209,35.4a4.91,4.91,0,0,1-.45.71,4.83,4.83,0,0,1-.61.4c-.11.09-.73-.3-.81-.35a6,6,0,0,0-.63-.29,2.72,2.72,0,0,0,1.37.09A4.24,4.24,0,0,0,209,35.4Z"/><path class="cls-3" d="M225,10.84a.81.81,0,0,0-.25-1c-.51-.4-.52-.46-.52-.46s.29.21.37-.12a2.48,2.48,0,0,1,.15-.47l.08.11s-.38.75.17.8h.23s-.08.16-.08.2a.65.65,0,0,0,0,.2.33.33,0,0,0,.21.32.45.45,0,0,0-.05.61S224.9,11.25,225,10.84Z"/><path class="cls-3" d="M224.71,8.83a1.64,1.64,0,0,0,.26,0l0,0-.22.14Z"/><path class="cls-3" d="M226.11,8.57a1.34,1.34,0,0,1-.12.24,2.67,2.67,0,0,0,.09-.26Z"/><path class="cls-3" d="M226.66,9.44a1.69,1.69,0,0,1-.13.27,1.52,1.52,0,0,0,.09-.28Z"/><path class="cls-3" d="M223.23,10.83a.55.55,0,0,0,.36.38.75.75,0,0,0,.26,0l.27-.05a1.31,1.31,0,0,1-.27.06.83.83,0,0,1-.27,0,.59.59,0,0,1-.39-.39Z"/><path class="cls-5" d="M212.21,59a3.23,3.23,0,0,1-1.45-.38,2.82,2.82,0,0,1-1.24-1.41l.06,0a2.76,2.76,0,0,0,1.2,1.38,2.29,2.29,0,0,0,2.22.16,4.85,4.85,0,0,0,.8-1.51.22.22,0,0,0-.11-.27l-.24-.1h0l-.12-.34L213,56a1.06,1.06,0,0,0-.55-.31,2.11,2.11,0,0,1-.69-.23.28.28,0,0,0-.15,0h-1.25v-.07h1.25a.41.41,0,0,1,.18.05,2,2,0,0,0,.67.23,1.12,1.12,0,0,1,.6.34c.08.15.31.5.31.51h0l.11.33.21.1a.26.26,0,0,1,.14.34,4.57,4.57,0,0,1-.81,1.54A1.38,1.38,0,0,1,212.21,59Z"/><path class="cls-2" d="M245.34,105.28s-32.17,2.46-75.81,6.47-70.45.52-85.41-8.92V99.3L217.6,97.59l29.55,2.14Z"/><polygon class="cls-3" points="338.02 101.26 337.67 95.42 336.98 101.31 338.02 101.26"/><path class="cls-3" d="M255.91,97.54V92.11a13.2,13.2,0,0,1-1.36-.15,1.42,1.42,0,0,0-.25-.24,2.49,2.49,0,0,1,.21.24l.09.1.09.13h0C255.19,92.87,255.91,94.36,255.91,97.54Z"/><path class="cls-3" d="M246,99.14c-6.78.52-13.56.8-20.33,1.39l-10.15.75-10.15.86c-13.53,1.2-27,2.53-40.56,3.9q-5.07.49-10.15.9c-3.39.31-6.78.54-10.17.77s-6.8.35-10.2.52-6.81.12-10.22.09l-5.1-.18c-.85,0-1.71,0-2.55-.11l-2.55-.21-5.09-.41-5.07-.67c-3.38-.39-6.7-1.16-10-1.77s-6.61-1.6-9.9-2.41a180.3,180.3,0,0,0,40.32,4.54c13.55,0,27.07-1.31,40.58-2.63s27-2.6,40.61-3.54l10.18-.65,10.18-.52,5.09-.22,5.09-.14Z"/><path class="cls-6" d="M367.44,24.6a10,10,0,0,0-9.76,10.16,9.77,9.77,0,1,0,19.52,0A10,10,0,0,0,367.44,24.6Zm0,19.06a8.91,8.91,0,1,1,8.55-8.9A8.74,8.74,0,0,1,367.44,43.66Z"/><path class="cls-6" d="M370.46,34.54a3.52,3.52,0,0,0-.3-4.49,3.11,3.11,0,0,0-2.33-1h-4.39V40.48h1.1V35.91h3.08l2.57,4.57h1.25l-2.68-4.72A3.19,3.19,0,0,0,370.46,34.54Zm-5.92.29V30.12h3.29a2,2,0,0,1,1.55.69,2.44,2.44,0,0,1,0,3.32,2,2,0,0,1-1.55.7Z"/><path class="cls-2" d="M228.23,2.14a2.06,2.06,0,1,1-4.11,0V2a2.63,2.63,0,0,1,.06-.39h0a2,2,0,0,1,4,.39.13.13,0,0,1,0,.06h0Z"/><polygon class="cls-1" points="202.99 37.79 187.85 37.79 174.46 56.22 177.6 37.79 164.6 37.79 156.51 85.38 169.5 85.38 172.99 64.89 181.78 85.38 195.42 85.38 184.91 61.65 202.99 37.79"/><path class="cls-1" d="M58,65.76a31.78,31.78,0,0,0-6.36-4.62,54.87,54.87,0,0,0-7.83-3.25Q36.36,55.27,34,53.67a3.84,3.84,0,0,1-2-4.1q.87-4.11,6.57-4.11,7.55,0,10.4,7.76L67.46,43A29.43,29.43,0,0,0,56.84,29.16,29.15,29.15,0,0,0,40,24.37q-11.82,0-20,6.5A27.09,27.09,0,0,0,9.86,48.09Q6.68,66.9,27.05,74.31c.95.31,2.28.73,4,1.26s3,1,4,1.37,2,.83,3.07,1.36a5.55,5.55,0,0,1,2.3,1.83,3.33,3.33,0,0,1,.44,2.39q-.76,4.23-8.54,4.22-9.87,0-13.36-9.12L0,87.77a26.25,26.25,0,0,0,10.35,14.77q7.6,5.29,20.09,5.3,13.36,0,21.74-5.93T62.53,84.35a28,28,0,0,0-.16-10.95A15,15,0,0,0,58,65.76Z"/><path class="cls-2" d="M254.88,92.92a1.45,1.45,0,0,0-.18-.72h0a1.76,1.76,0,0,0-.14-.23,1.42,1.42,0,0,0-.25-.24h0a1.77,1.77,0,0,0-1.11-.38c-111.56,3.29-184.3-1.84-184.3-1.84-2.36,0-3.32,4.17-2,6.67l1.14.45h0a94.43,94.43,0,0,0,14,4.15c2.72.59,5.53,1.17,8.41,1.64s5.83.89,8.83,1.24,6.07.66,9.16.91,6.22.44,9.36.59l4.73.2c1.58.06,3.16.11,4.75.15q4.74.12,9.47.1c25.17,0,49.3-1.91,62.89-3.27q3.68-.37,7.35-.7t7.35-.59q7.37-.56,14.74-.93l24.2-1.22a1.59,1.59,0,0,0,1.56-1.52Z"/><path class="cls-2" d="M266.89,24.6h42.32l-.43,2.62a75,75,0,0,1-7.72,23l-19.89,37.5H261.61l24.18-45.6H281c-8.9,0-15.64-8.36-14.1-17.49Z"/><polygon class="cls-1" points="101.93 37.79 99.06 54.65 87.9 54.65 90.77 37.79 77.78 37.79 69.69 85.38 82.68 85.38 85.66 67.84 96.82 67.84 93.84 85.38 106.83 85.38 114.93 37.79 101.93 37.79"/><path class="cls-2" d="M327.74,42.09h-3.55l-1.13,4.6h2.69q9.25,0,14.54,5.76t3.46,16.32q-1.65,9.92-8.7,15.14a27.24,27.24,0,0,1-16.66,5.23q-8.31,0-13.85-3.79a19.32,19.32,0,0,1-7.62-11.17l9.73-5.31a7.65,7.65,0,0,1,8.85,1.22l0,0a7.09,7.09,0,0,0,4.85,1.53q5.53,0,6.32-4.32a3.5,3.5,0,0,0-.87-3.43,4.87,4.87,0,0,0-3.55-1.26H310.8a6.83,6.83,0,0,1-6.43-8.52l6.92-29.52h36.44C346,34.71,337.6,42.09,327.74,42.09Z"/><path class="cls-1" d="M132.1,37.79,109.51,85.38h14.43l2.61-6.12h13.18l.53,6.12H153.9l-6.53-47.59Zm-.92,30.59,6.27-14.61,1.31,14.61Z"/><path class="cls-1" d="M264,51.86q1.11-6.12-2.74-10.09t-11.29-4h-17.5l-8,47.59h19.33q7.69,0,12.5-3.67a14.27,14.27,0,0,0,5.65-9.66q1-7-4.12-10.81A13.4,13.4,0,0,0,264,51.86ZM249.17,70.29a4.21,4.21,0,0,1-1.47,2.48,4.32,4.32,0,0,1-2.78.91h-5.48l1.17-6.79L247,67Q249.68,67.37,249.17,70.29Zm1.63-17.61a3.56,3.56,0,0,1-3.33,3.13l-5,.06,1.11-6.39h4.31a3.46,3.46,0,0,1,2.32.75A2.55,2.55,0,0,1,250.8,52.68Z"/></g></g></g></svg>