<svg xmlns="http://www.w3.org/2000/svg" viewBox="0 0 366.81 73.15"><defs><style>.cls-1{fill:#064747;}</style></defs><g id="Layer_2" data-name="Layer 2"><g id="Layer_1-2" data-name="Layer 1"><path class="cls-1" d="M347.63,50.71l.31-1.41c3-13.95,17.18-16.44,17.32-16.46l1.55-.26-.48,1.49a23.84,23.84,0,0,1-17.28,16.38Zm16.29-15.58c-3.41,1-11,4.16-13.7,13A22,22,0,0,0,363.92,35.13Z"/><path class="cls-1" d="M325.06,59.11a22.07,22.07,0,0,1-7.62-1.27l-1.34-.53,1-1c10-10.17,23.3-4.74,23.43-4.68l1.45.61-1.21,1A24,24,0,0,1,325.06,59.11Zm-5.41-2.59a22,22,0,0,0,18.54-3.69C334.78,51.85,326.63,50.46,319.65,56.52Z"/><path class="cls-1" d="M301.67,59a23.63,23.63,0,0,1-15.83-6.08l-1-1,1.34-.55c13.2-5.4,23.28,4.82,23.38,4.93l1.08,1.13-1.5.45A25.6,25.6,0,0,1,301.67,59Zm-13.28-6.42a22,22,0,0,0,18.49,3.89C304.13,54.24,297.19,49.75,288.39,52.59Z"/><path class="cls-1" d="M274.39,52.72a23.66,23.66,0,0,1-18.65-8.92l-.85-1.17,1.41-.32c13.91-3.17,22.18,8.56,22.26,8.68l.89,1.3-1.55.2A27,27,0,0,1,274.39,52.72Zm-16.08-8.84a22,22,0,0,0,17.61,6.87C273.57,48.09,267.45,42.53,258.31,43.88Z"/><path class="cls-1" d="M249.44,42.43h-1.57a23.85,23.85,0,0,1-20.79-11.59l-.68-1.27,1.44-.13c14.22-1.27,20.83,11.47,20.89,11.6ZM229.62,31.26a22,22,0,0,0,16.52,9.17C244.18,37.48,238.84,31.19,229.62,31.26Z"/><path class="cls-1" d="M218.94,28.6a23.82,23.82,0,0,1-20.42-11l-.72-1.26,1.44-.17c14.17-1.71,21.16,10.83,21.23,11l.75,1.38-1.57,0ZM201.07,18a22,22,0,0,0,16.8,8.67C215.81,23.77,210.29,17.62,201.07,18Z"/><path class="cls-1" d="M189.16,16.4a23.76,23.76,0,0,1-19.9-10.34l-.75-1.24,1.43-.21c14.11-2.14,21.48,10.18,21.55,10.31l.79,1.35-1.56.09C190.19,16.39,189.67,16.4,189.16,16.4ZM171.82,6.33a22,22,0,0,0,17.05,8.15C186.73,11.66,181,5.65,171.82,6.33Z"/><path class="cls-1" d="M153.41,9.17a23.57,23.57,0,0,1-15.69-6l-1-1L138,1.64c13.17-5.51,23.32,4.64,23.42,4.74l1.1,1.12L161,8A25.7,25.7,0,0,1,153.41,9.17ZM140.27,2.84A22,22,0,0,0,158.79,6.6C156,4.38,149.05,0,140.27,2.84Z"/><path class="cls-1" d="M117.61,9.72A23.27,23.27,0,0,1,106.4,6.91l-1.24-.75,1.17-.85c11.53-8.4,23.76-.87,23.88-.8l1.33.84-1.35.8A24.41,24.41,0,0,1,117.61,9.72ZM108.8,6a22,22,0,0,0,18.88-.63C124.48,3.82,116.67,1.12,108.8,6Z"/><path class="cls-1" d="M83.19,17.61a21.75,21.75,0,0,1-6.77-1l-1.36-.49,1-1.07C85.67,4.53,99.15,9.47,99.28,9.52l1.47.56-1.17,1.05A24,24,0,0,1,83.19,17.61Zm-4.61-2.4A22,22,0,0,0,97,10.83C93.53,10,85.34,8.89,78.58,15.21Z"/><path class="cls-1" d="M51.43,31.37a19.13,19.13,0,0,1-3-.21L47,30.9l.79-1.21c7.82-11.94,21.92-9.22,22.06-9.19l1.54.31-1,1.23A24,24,0,0,1,51.43,31.37Zm-1.06-1.94a21.94,21.94,0,0,0,17.44-7.27C64.28,21.87,56,22.11,50.37,29.43Z"/><path class="cls-1" d="M22.32,50.86l.5-1.36c5-13.38,19.31-13.87,19.45-13.87l1.57,0L43.16,37a23.87,23.87,0,0,1-19.4,13.8Zm18.3-13.15c-3.51.51-11.51,2.58-15.38,11A22,22,0,0,0,40.62,37.71Z"/><path class="cls-1" d="M0,73.15l.32-1.41C3.45,57.82,17.6,55.41,17.74,55.39l1.55-.25-.49,1.49A23.84,23.84,0,0,1,1.42,72.9ZM16.38,57.67C13,58.65,5.32,61.77,2.6,70.61A22,22,0,0,0,16.38,57.67Z"/></g></g></svg>