<svg xmlns="http://www.w3.org/2000/svg" viewBox="0 0 339.36 143.4"><defs><style>.cls-1{fill:#064747;}</style></defs><g id="Layer_2" data-name="Layer 2"><g id="Layer_1-2" data-name="Layer 1"><path class="cls-1" d="M324.52,35.93a23,23,0,0,1-10.2-2.3l-1.27-.69,1.13-.91c11.12-8.94,23.69-2,23.81-1.93l1.37.77-1.31.87A24.31,24.31,0,0,1,324.52,35.93Zm-7.85-3.36A22,22,0,0,0,335.51,31C332.23,29.68,324.31,27.35,316.67,32.57Z"/><path class="cls-1" d="M296.4,36.82a23.61,23.61,0,0,1-13.58-4.28l-1.14-.89,1.26-.71c12.46-7,23.7,2,23.81,2.05L308,34l-1.44.63A24.89,24.89,0,0,1,296.4,36.82Zm-11.09-4.93a22,22,0,0,0,18.83,1.61C301.14,31.62,293.71,28,285.31,31.89Z"/><path class="cls-1" d="M268.18,34.7A23.65,23.65,0,0,1,251.72,28l-1-1.06,1.35-.5c13.4-4.92,23.1,5.65,23.19,5.76l1.05,1.17-1.52.4A25.69,25.69,0,0,1,268.18,34.7Zm-13.9-6.91a22,22,0,0,0,18.35,4.55C270,30,263.18,25.27,254.28,27.79Z"/><path class="cls-1" d="M237.25,28.88a23.6,23.6,0,0,1-16.46-6.66l-1-1,1.35-.5c13.4-4.93,23.1,5.65,23.19,5.75l1.05,1.17-1.52.4A25.64,25.64,0,0,1,237.25,28.88ZM223.35,22a22.05,22.05,0,0,0,18.35,4.56C239,24.19,232.26,19.46,223.35,22Z"/><path class="cls-1" d="M210.5,20a23.72,23.72,0,0,1-19.1-9.41l-.81-1.2L192,9.13c14-2.8,21.95,9.15,22,9.27l.85,1.32-1.56.16A27.43,27.43,0,0,1,210.5,20ZM194,10.76a21.93,21.93,0,0,0,17.42,7.33C209.11,15.37,203.15,9.65,194,10.76Z"/><path class="cls-1" d="M176.89,9.25A23.66,23.66,0,0,1,161,3.12l-1-1,1.34-.55c13.23-5.36,23.27,4.89,23.37,5l1.08,1.13-1.5.45A25.45,25.45,0,0,1,176.89,9.25ZM163.56,2.78a22,22,0,0,0,18.48,4C179.3,4.49,172.38,0,163.56,2.78Z"/><path class="cls-1" d="M137.59,9.63a22.07,22.07,0,0,1-6.92-1l-1.36-.5,1-1.06C140-3.43,153.44,1.6,153.57,1.65l1.47.57-1.17,1A24,24,0,0,1,137.59,9.63ZM132.84,7.2A22,22,0,0,0,151.25,3C147.81,2.07,139.63.93,132.84,7.2Z"/><path class="cls-1" d="M104.54,24.46c-.51,0-.83,0-.9,0l-1.44-.12.66-1.28c6.6-12.66,20.89-11.37,21-11.35l1.56.16-.85,1.32A24,24,0,0,1,104.54,24.46ZM122,13.54c-3.55.07-11.75,1.13-16.64,9A22,22,0,0,0,122,13.54Z"/><path class="cls-1" d="M78.28,44.93l.45-1.38C83.24,30,97.56,29,97.7,29l1.57-.09-.63,1.44A23.84,23.84,0,0,1,79.72,44.81ZM96.12,31.16c-3.49.63-11.41,3-15,11.49A22,22,0,0,0,96.12,31.16Z"/><path class="cls-1" d="M56.51,67.74l.32-1.41C60,52.41,74.1,50,74.25,50l1.55-.24-.49,1.49A23.88,23.88,0,0,1,57.94,67.49ZM72.89,52.26c-3.41,1-11.06,4.1-13.77,12.94A22,22,0,0,0,72.89,52.26Z"/><path class="cls-1" d="M36.32,91.93l.22-1.43C38.71,76.4,52.67,73,52.81,73l1.53-.35L54,74.17A23.85,23.85,0,0,1,37.72,91.58ZM51.61,75.38c-3.33,1.2-10.75,4.83-12.86,13.84A22,22,0,0,0,51.61,75.38Z"/><path class="cls-1" d="M17.4,117.12l.15-1.44C19,101.49,32.82,97.45,33,97.42L34.47,97l-.31,1.54A23.83,23.83,0,0,1,18.79,116.7ZM31.87,99.84c-3.27,1.37-10.5,5.36-12.18,14.45A22,22,0,0,0,31.87,99.84Z"/><path class="cls-1" d="M0,143.4.06,142c.61-14.26,14.11-19.13,14.25-19.18l1.48-.52-.21,1.56A23.85,23.85,0,0,1,1.36,142.89Zm13.38-18.14c-3.18,1.56-10.16,6-11.27,15.17A22,22,0,0,0,13.38,125.26Z"/></g></g></svg>