<svg xmlns="http://www.w3.org/2000/svg" viewBox="0 0 245.44 150.25"><defs><style>.cls-1{fill:#064747;}</style></defs><g id="Layer_2" data-name="Layer 2"><g id="Layer_1-2" data-name="Layer 1"><path class="cls-1" d="M1.77,150.25h-.2L0,150.18l.77-1.36A23.86,23.86,0,0,1,21,136.28l1.45,0-.59,1.32C16.44,149.81,3.56,150.25,1.77,150.25Zm17.63-12a22,22,0,0,0-16,10C6.88,148,15,146.43,19.4,138.29Z"/><path class="cls-1" d="M25.88,132.5l.5-1.49A23.85,23.85,0,0,1,44,115l1.42-.23-.33,1.4c-3.3,13.89-17.48,16.12-17.62,16.14Zm16.87-15.26A22,22,0,0,0,28.81,130C32.24,129.07,39.92,126,42.75,117.24Z"/><path class="cls-1" d="M43,107.84l-.71-1.4A23.83,23.83,0,0,1,43,82.65l.82-1.19.78,1.22c7.64,12-.66,23.77-.74,23.88Zm.84-22.74A22,22,0,0,0,43.23,104C45,100.89,48.15,93.27,43.81,85.1Z"/><path class="cls-1" d="M49.07,76.91l.47-1.49A23.86,23.86,0,0,1,66.78,59l1.42-.27-.3,1.42c-3,13.95-17.14,16.48-17.28,16.5ZM65.62,61.3A22,22,0,0,0,52,74.35C55.36,73.35,63,70.16,65.62,61.3Z"/><path class="cls-1" d="M79.48,56.15a22.73,22.73,0,0,1-5.64-.65l-1.51-.43,1.07-1.14A23.84,23.84,0,0,1,96,46.53l1.39.37-.88,1.15A20.87,20.87,0,0,1,79.48,56.15ZM76,54c3.5.55,11.75,1,17.95-5.9A22,22,0,0,0,76,54Z"/><path class="cls-1" d="M119.65,52.92c-9.49,0-15.87-6.87-16-7l-1.06-1.16,1.52-.41A23.88,23.88,0,0,1,127.29,50l1,1.06-1.35.5A20.47,20.47,0,0,1,119.65,52.92Zm-13.3-7.08c2.69,2.32,9.49,7,18.38,4.43A22,22,0,0,0,106.35,45.84Z"/><path class="cls-1" d="M130.88,83.1l-.56-1.33c-5.58-13.14,4.52-23.34,4.62-23.44l1.12-1.11.47,1.5a23.83,23.83,0,0,1-4.64,23.34ZM135.17,61c-2.2,2.77-6.6,9.77-3.66,18.54A22,22,0,0,0,135.17,61Z"/><path class="cls-1" d="M113.14,108.34l.15-1.43c1.57-14.19,15.36-18.15,15.5-18.19l1.51-.42L130,89.84a23.84,23.84,0,0,1-15.47,18.09Zm14.56-17.2c-3.28,1.35-10.54,5.3-12.26,14.39A22,22,0,0,0,127.7,91.14Z"/><path class="cls-1" d="M90.12,113.19a22.66,22.66,0,0,1-9.46-2l-1.3-.64,1.1-.94c10.81-9.32,23.61-2.81,23.73-2.74l1.4.73-1.28.9A24.21,24.21,0,0,1,90.12,113.19ZM83,110.09a22,22,0,0,0,18.77-2.17C98.42,106.67,90.42,104.62,83,110.09Z"/><path class="cls-1" d="M65.35,113a23.58,23.58,0,0,1-16-6.25l-1-1,1.35-.54c13.26-5.26,23.22,5.08,23.32,5.18l1.08,1.14-1.51.44A25.74,25.74,0,0,1,65.35,113Zm-13.46-6.57a22,22,0,0,0,18.45,4.1C67.61,108.25,60.72,103.69,51.89,106.42Z"/><path class="cls-1" d="M43.12,104.31l-1.56-.17A23.86,23.86,0,0,1,22.07,90.48l-.54-1.34,1.45,0c14.27.2,19.53,13.55,19.58,13.69ZM24.56,91.16A21.94,21.94,0,0,0,40.05,102C38.39,98.85,33.77,92,24.56,91.16Z"/><path class="cls-1" d="M17.38,83.86l-.71-1.4a23.87,23.87,0,0,1,.83-23.79l.83-1.19.77,1.23c7.62,12.07-.71,23.76-.79,23.88Zm.9-22.74A22,22,0,0,0,17.65,80C19.38,76.91,22.6,69.3,18.28,61.12Z"/><path class="cls-1" d="M21,52.93l0-1.57A23.85,23.85,0,0,1,33,30.79l1.29-.66.1,1.45c1,14.23-11.86,20.6-12,20.67ZM32.56,33.32a22,22,0,0,0-9.48,16.35C26.06,47.75,32.49,42.57,32.56,33.32Z"/><path class="cls-1" d="M41,26.23c-.51,0-.81,0-.83,0l-1.56-.13.82-1.33a23.86,23.86,0,0,1,20.73-11.7l1.44.09L61,14.44C55.54,25.44,44.18,26.23,41,26.23ZM58.49,15a22,22,0,0,0-16.44,9.31C45.59,24.17,53.76,22.94,58.49,15Z"/><path class="cls-1" d="M75.89,12.71a24.11,24.11,0,0,1-8-1.32l-1.46-.57,1.18-1A23.81,23.81,0,0,1,90.85,4.64l1.35.5-1,1.05A20.45,20.45,0,0,1,75.89,12.71Zm-5.67-2.59c3.43.9,11.6,2.11,18.45-4.12A22,22,0,0,0,70.22,10.12Z"/><path class="cls-1" d="M112.28,8.51A24.27,24.27,0,0,1,98.59,3.93L97.36,3l1.43-.65a23.86,23.86,0,0,1,23.73,1.87l1.15.88-1.26.72A20.18,20.18,0,0,1,112.28,8.51ZM101.19,3.39c3,1.86,10.48,5.4,18.84,1.45A22,22,0,0,0,101.19,3.39Z"/><path class="cls-1" d="M145.51,10.1c-9,0-15.32-6.22-15.4-6.3L129,2.68l1.5-.47a23.83,23.83,0,0,1,23.34,4.64l1,1-1.33.56A20.32,20.32,0,0,1,145.51,10.1ZM132.75,3.57c2.78,2.2,9.78,6.6,18.55,3.66A22,22,0,0,0,132.75,3.57Z"/><path class="cls-1" d="M177.82,15.37c-9.95,0-16.4-7.56-16.47-7.65l-1-1.2,1.53-.35a23.85,23.85,0,0,1,22.87,6.59l.95,1.09-1.37.45A20.87,20.87,0,0,1,177.82,15.37ZM164,7.72c2.59,2.43,9.19,7.39,18.17,5.2A22,22,0,0,0,164,7.72Z"/><path class="cls-1" d="M209.25,23.3c-10.67,0-17.12-8.59-17.2-8.69l-.93-1.26,1.55-.25a23.81,23.81,0,0,1,22.42,8l.88,1.14-1.4.37A20.94,20.94,0,0,1,209.25,23.3Zm-14.54-8.53c2.42,2.58,8.71,8,17.81,6.32A22,22,0,0,0,194.71,14.77Z"/><path class="cls-1" d="M240.28,33.71c-11.68,0-18-10-18.07-10.11l-.82-1.34,1.56-.12a23.87,23.87,0,0,1,21.71,9.77l.78,1.21-1.42.25A21.57,21.57,0,0,1,240.28,33.71ZM224.85,24c2.21,2.77,8,8.63,17.24,7.73A21.87,21.87,0,0,0,224.85,24Z"/></g></g></svg>