<svg xmlns="http://www.w3.org/2000/svg" viewBox="0 0 339.63 185.09"><defs><style>.cls-1{fill:#064747;}</style></defs><g id="Layer_2" data-name="Layer 2"><g id="Layer_1-2" data-name="Layer 1"><path class="cls-1" d="M0,76.72l.07-1.57A23.87,23.87,0,0,1,12.53,54.87l1.31-.62.07,1.44C14.57,70,1.56,76,1.43,76.07ZM12,57.39A22,22,0,0,0,2.13,73.51C5.17,71.67,11.72,66.63,12,57.39Z"/><path class="cls-1" d="M15.72,49.09l.47-1.49A23.82,23.82,0,0,1,33.45,31.21l1.42-.27-.31,1.41c-3,13.95-17.15,16.46-17.29,16.48ZM32.29,33.5a22,22,0,0,0-13.69,13C22,45.54,29.64,42.36,32.29,33.5Z"/><path class="cls-1" d="M39.61,26.8H38l.72-1.39A23.84,23.84,0,0,1,58.5,12.1l1.45,0-.54,1.34C54.11,26.65,39.78,26.8,39.61,26.8ZM57,14.17A22,22,0,0,0,41.31,24.75C44.83,24.33,52.88,22.47,57,14.17Z"/><path class="cls-1" d="M76,11.57a24.48,24.48,0,0,1-9.94-2.12l-1.4-.7,1.26-.93A23.85,23.85,0,0,1,89.55,4.76l1.3.63-1.08,1A20.23,20.23,0,0,1,76,11.57Zm-7.5-3.18c3.33,1.2,11.37,3.13,18.74-2.46A22,22,0,0,0,68.52,8.39Z"/><path class="cls-1" d="M111.55,8.76A24,24,0,0,1,97,3.35L95.81,2.3l1.46-.56A23.84,23.84,0,0,1,120.85,5l1.1.95-1.3.64A20.25,20.25,0,0,1,111.55,8.76ZM99.61,3c2.9,2,10.15,6,18.72,2.55A22,22,0,0,0,99.61,3Z"/><path class="cls-1" d="M146,15.18c-11.15,0-17.56-9.27-17.63-9.38l-.88-1.3L129,4.31a23.89,23.89,0,0,1,22.09,8.87l.83,1.18-1.41.31A21.3,21.3,0,0,1,146,15.18ZM131,6.07c2.32,2.67,8.38,8.29,17.54,7A22,22,0,0,0,131,6.07Z"/><path class="cls-1" d="M178.31,27.91c-14.06,0-19.6-13-19.66-13.17l-.6-1.45,1.57.13a23.83,23.83,0,0,1,19.84,13.14l.58,1.33-1.45,0ZM161.19,15.53c1.74,3.09,6.54,9.81,15.77,10.41A22,22,0,0,0,161.19,15.53Z"/><path class="cls-1" d="M205.52,43.71c-14.06,0-19.6-13-19.65-13.17l-.6-1.45,1.56.13a23.85,23.85,0,0,1,19.84,13.14l.58,1.33-1.44,0ZM188.4,31.33c1.74,3.1,6.55,9.82,15.78,10.42A22,22,0,0,0,188.4,31.33Z"/><path class="cls-1" d="M231.32,63.9l-1.43-.2c-14.14-2-17.7-15.88-17.73-16l-.37-1.53,1.52.37A23.83,23.83,0,0,1,231,62.5ZM214.55,48.84c1.25,3.32,5,10.69,14,12.67A22,22,0,0,0,214.55,48.84Z"/><path class="cls-1" d="M252.05,87.31l-1.37-.48c-13.47-4.69-14.26-19-14.26-19.17l-.07-1.57,1.43.66A23.85,23.85,0,0,1,252,85.86Zm-13.51-18c.57,3.5,2.81,11.45,11.28,15.16A22,22,0,0,0,238.54,69.27Z"/><path class="cls-1" d="M264.11,116.06l-1.15-.88c-11.35-8.65-7.63-22.51-7.59-22.65l.42-1.51,1.15,1.06a23.85,23.85,0,0,1,7.53,22.58Zm-7.23-21.35c-.54,3.51-.89,11.77,6,17.92A22,22,0,0,0,256.88,94.71Z"/><path class="cls-1" d="M247.16,144.22l0-1.45c-.13-14.27,13.09-19.85,13.23-19.9l1.45-.59-.13,1.56a23.82,23.82,0,0,1-13.21,19.8Zm12.41-18.82c-3.1,1.73-9.83,6.52-10.46,15.75A22,22,0,0,0,259.57,125.4Z"/><path class="cls-1" d="M221.7,159.23c-.87,0-1.42,0-1.52-.06l-1.43-.17.71-1.26c7-12.43,21.25-10.67,21.39-10.64l1.55.21-.89,1.28A24,24,0,0,1,221.7,159.23Zm16.89-10.34c-3.69,0-11.61,1-16.62,8.42a22,22,0,0,0,16.92-8.42Z"/><path class="cls-1" d="M204,164.64a23.57,23.57,0,0,1-15.39-5.71l-1-1,1.33-.58c13.08-5.72,23.39,4.26,23.49,4.36l1.11,1.11-1.49.49A25.36,25.36,0,0,1,204,164.64Zm-12.85-6.11A22,22,0,0,0,209.75,162C207,159.81,199.91,155.49,191.17,158.53Z"/><path class="cls-1" d="M181.75,157.76l-1.53-.36a23.84,23.84,0,0,1-17.69-15.92l-.38-1.4,1.43.2c14.15,1.92,17.76,15.81,17.79,15.95Zm-16.84-15.3A22,22,0,0,0,179,155.08C177.71,151.76,174,144.41,164.91,142.46Z"/><path class="cls-1" d="M160.12,134.74,159,133.61a23.85,23.85,0,0,1-6.22-23l.44-1.38,1.1.94c10.83,9.29,6.33,22.92,6.28,23.06Zm-5.84-22a22,22,0,0,0,5,18.24C160,127.52,160.81,119.3,154.28,112.75Z"/><path class="cls-1" d="M155.49,103.09l.12-1.56a23.87,23.87,0,0,1,13.06-19.9l1.33-.58,0,1.44c.24,14.27-13,19.94-13.08,20Zm12.58-19a22,22,0,0,0-10.35,15.81C160.8,98.2,167.5,93.36,168.07,84.13Z"/><path class="cls-1" d="M173.54,77.37,174.2,76a23.82,23.82,0,0,1,19.17-14.1l1.45-.09-.49,1.36c-4.74,13.46-19.08,14.19-19.22,14.19ZM191.93,64a22,22,0,0,0-15.2,11.22C180.23,74.64,188.19,72.44,191.93,64Z"/><path class="cls-1" d="M205.81,60.49A22.33,22.33,0,0,1,201,60l-1.53-.38,1-1.18a23.83,23.83,0,0,1,22.36-8.16l1.4.32-.84,1.18A21.05,21.05,0,0,1,205.81,60.49Zm-2.63-2c3.52.44,11.78.56,17.74-6.51A22,22,0,0,0,203.18,58.45Z"/><path class="cls-1" d="M247.07,57.3c-9.48,0-15.86-6.86-15.94-6.94l-1.06-1.16,1.51-.42a23.87,23.87,0,0,1,23.14,5.6l1,1-1.35.51A20.56,20.56,0,0,1,247.07,57.3Zm-13.29-7.06c2.69,2.31,9.49,7,18.38,4.41A22,22,0,0,0,233.78,50.24Z"/><path class="cls-1" d="M280.65,75.05l-1.43-.21c-14.13-2-17.66-15.92-17.69-16.06l-.37-1.53,1.53.37a23.84,23.84,0,0,1,17.59,16ZM263.92,60c1.24,3.32,5,10.7,14,12.71A22,22,0,0,0,263.92,60Z"/><path class="cls-1" d="M300.82,99l-1.36-.49c-13.42-4.85-14-19.19-14-19.34l-.05-1.57,1.42.67a23.81,23.81,0,0,1,13.95,19.28Zm-13.3-18.19c.53,3.5,2.67,11.48,11.1,15.29A22,22,0,0,0,287.52,80.78Z"/><path class="cls-1" d="M316.74,126.06l-1.28-.68c-12.64-6.63-11.29-20.92-11.27-21.06l.16-1.56,1.32.85a23.83,23.83,0,0,1,11.19,21ZM306,106.22c.06,3.55,1.09,11.74,8.92,16.66A22,22,0,0,0,306,106.22Z"/><path class="cls-1" d="M328.46,155.24l-1.16-.87c-11.39-8.59-7.75-22.47-7.71-22.61l.41-1.52,1.16,1.06a23.84,23.84,0,0,1,7.65,22.54Zm-7.35-21.31c-.52,3.51-.83,11.77,6.11,17.89A22,22,0,0,0,321.11,133.93Z"/><path class="cls-1" d="M338.21,185.09l-1.07-1c-10.61-9.54-5.79-23.06-5.74-23.2l.54-1.47,1.07,1.15a23.88,23.88,0,0,1,5.68,23.12Zm-5.48-21.86c-.82,3.45-1.84,11.65,4.54,18.35A22,22,0,0,0,332.73,163.23Z"/></g></g></svg>